<?xml version="1.0" encoding="UTF-8"?>
<svg id="Layer_1" data-name="Layer 1" xmlns="http://www.w3.org/2000/svg" width="1528" height="680" version="1.1" viewBox="0 0 1528 680">
  <defs>
    <style>
      .cls-1 {
        fill: none;
        stroke: #231f20;
        stroke-width: 2px;
      }
    </style>
  </defs>
  <g id="Floor_line" data-name="Floor line">
    <line class="cls-1" x1="280.1" y1="491.2" x2="226" y2="491.2"/>
    <line class="cls-1" x1="336.2" y1="491.2" x2="296.7" y2="491.2"/>
    <line class="cls-1" x1="780.2" y1="491.2" x2="356.1" y2="491.2"/>
    <line class="cls-1" x1="838.3" y1="491.2" x2="800.1" y2="491.2"/>
    <line class="cls-1" x1="909" y1="491.2" x2="854.9" y2="491.2"/>
    <line class="cls-1" x1="1528" y1="491.2" x2="925.6" y2="491.2"/>
    <line class="cls-1" x1="209.4" y1="491.2" y2="491.2"/>
  </g>
  <line class="cls-1" x1="144.3" y1="407.7" x2="342.9" y2="407.7"/>
  <line class="cls-1" x1="661" y1="407.7" x2="859.6" y2="407.7"/>
  <g>
    <line class="cls-1" x1="45.6" y1="154.4" x2="439.6" y2="154.4"/>
    <circle class="cls-1" cx="40" cy="154.4" r="7.7"/>
    <circle class="cls-1" cx="443.4" cy="154.4" r="7.7"/>
    <path class="cls-1" d="M144.3,154.4v298.1c0,3.2-2.7,5.9-5.9,5.9h-13.5v6.3c0,3.2-2.6,5.9-5.9,5.9h-16.1v6.5c0,3.2-2.7,5.9-5.9,5.9h-26.9c-3.2,0-5.9-2.7-5.9-5.9V160.3c0-3.2,2.7-5.9,5.9-5.9h74.2Z"/>
    <path class="cls-1" d="M422.6,160.3v259.6h-80.1V154.4h74.2c3.2,0,5.9,2.7,5.9,5.9h0Z"/>
    <path class="cls-1" d="M422.6,444.1v33c0,3.2-2.7,5.9-5.9,5.9h-26.9c-3.2,0-5.9-2.7-5.9-5.9v-6.5h-16.1c-3.3,0-5.9-2.7-5.9-5.9v-6.3h-5.8v-14.3h66.5,0Z"/>
    <line class="cls-1" x1="144.3" y1="163.4" x2="342.9" y2="163.4"/>
    <line class="cls-1" x1="144.3" y1="285" x2="342.9" y2="285"/>
    <line class="cls-1" x1="240.5" y1="163.4" x2="240.5" y2="407.7"/>
  </g>
  <line class="cls-1" x1="957.3" y1="154.4" x2="685.7" y2="154.4"/>
  <polyline class="cls-1" points="611.7 154.4 587.8 154.4 563.3 154.4"/>
  <circle class="cls-1" cx="557.7" cy="154.4" r="7.7"/>
  <circle class="cls-1" cx="961.2" cy="154.4" r="7.7"/>
  <path class="cls-1" d="M662,189.4v230.5h-80.1v-124.1c28.2-5.2,49.5-30,49.5-59.7s-21.3-54.4-49.5-59.7v-16.1c0-3.2,2.7-5.9,5.9-5.9h23.9v.5c0,20.4,16.6,37,37,37s9.2-.9,13.3-2.5h0Z"/>
  <path class="cls-1" d="M581.9,444.1h80.1v8.4c0,3.2-2.7,5.9-5.9,5.9h-13.5v6.3c0,3.2-2.6,5.9-5.9,5.9h-16.1v6.5c0,3.2-2.7,5.9-5.9,5.9h-26.9c-3.2,0-5.9-2.7-5.9-5.9v-33h0Z"/>
  <path class="cls-1" d="M940.3,160.3v316.8c0,3.2-2.7,5.9-5.9,5.9h-8.8v-3.1h-16.6v3.1h-1.5c-2.5,0-4.6-1.6-5.5-3.8h31.1v-16.6h-53.5v-4.2h-13.5c-3.2,0-5.9-2.7-5.9-5.9V154.4h74.2c3.2,0,5.9,2.7,5.9,5.9h0Z"/>
  <line class="cls-1" x1="860.6" y1="163.4" x2="684.7" y2="163.4"/>
  <line class="cls-1" x1="662" y1="285" x2="860.6" y2="285"/>
  <line class="cls-1" x1="758.2" y1="163.4" x2="758.2" y2="407.7"/>
  <g>
    <rect class="cls-1" x="209.4" y="481" width="16.6" height="93.3"/>
    <rect class="cls-1" x="280.1" y="481" width="16.6" height="93.3"/>
    <rect class="cls-1" x="203.7" y="463.7" width="100.5" height="16.6"/>
  </g>
  <g>
    <rect class="cls-1" x="438.8" y="527.3" width="16.6" height="93.3"/>
    <rect class="cls-1" x="509.5" y="527.3" width="16.6" height="93.3"/>
    <rect class="cls-1" x="433.1" y="510" width="100.5" height="16.6"/>
  </g>
  <g>
    <rect class="cls-1" x="623.6" y="527.3" width="16.6" height="93.3"/>
    <rect class="cls-1" x="694.3" y="527.3" width="16.6" height="93.3"/>
    <rect class="cls-1" x="617.9" y="510" width="100.5" height="16.6"/>
  </g>
  <rect class="cls-1" x="838.3" y="479.9" width="16.6" height="93.3"/>
  <rect class="cls-1" x="909" y="479.9" width="16.6" height="93.3"/>
  <rect class="cls-1" x="832.6" y="462.6" width="100.5" height="16.6"/>
  <rect class="cls-1" x="294.7" y="419.9" width="551.9" height="24.2" rx="7.3" ry="7.3"/>
  <rect class="cls-1" x="336.2" y="444.1" width="19.9" height="169"/>
  <rect class="cls-1" x="780.2" y="444.1" width="19.9" height="169"/>
  <circle class="cls-1" cx="493" cy="154.9" r="37"/>
  <path class="cls-1" d="M685.7,154.9c0,2.9-.3,5.8-1,8.5-2.8,12-11.4,21.7-22.7,26-4.1,1.6-8.6,2.5-13.3,2.5-20.4,0-37-16.6-37-37s0-.3,0-.5c.3-20.2,16.7-36.5,37-36.5s36.7,16.3,37,36.5v.5Z"/>
  <path class="cls-1" d="M631.4,236.1c0,29.7-21.3,54.4-49.5,59.7-3.6.7-7.4,1-11.2,1-33.5,0-60.7-27.2-60.7-60.7s27.2-60.7,60.7-60.7,7.6.3,11.2,1c28.2,5.2,49.5,30,49.5,59.7h0Z"/>
  <line class="cls-1" x1="493" y1="117.9" x2="493"/>
  <line class="cls-1" x1="570.7" y1="175.4" x2="570.7"/>
  <line class="cls-1" x1="648.7" y1="117.9" x2="648.7"/>
  <rect class="cls-1" x="1028.4" y="56.9" width="115" height="127.2"/>
  <rect class="cls-1" x="1018.7" y="46.6" width="134.6" height="147.7"/>
  <rect class="cls-1" x="1370.4" y="56.9" width="115" height="127.2"/>
  <rect class="cls-1" x="1360.6" y="46.6" width="134.6" height="147.7"/>
  <rect class="cls-1" x="1221.3" y="44" width="68.9" height="76.4"/>
  <rect class="cls-1" x="1213.7" y="35.6" width="84.1" height="93.3"/>
  <g>
    <rect class="cls-1" x="1219.8" y="154.9" width="71.9" height="55.5"/>
    <rect class="cls-1" x="1228.5" y="162.6" width="54.5" height="40.1"/>
  </g>
  <rect class="cls-1" x="1059.4" y="270.7" width="393.1" height="14.2"/>
  <rect class="cls-1" x="1059.4" y="350.8" width="393.1" height="14.2"/>
  <rect class="cls-1" x="1059.4" y="431" width="393.1" height="14.2"/>
  <g>
    <rect class="cls-1" x="1343.6" y="216.3" width="9.2" height="54.4"/>
    <rect class="cls-1" x="1358.2" y="212" width="9.2" height="58.7"/>
    <rect class="cls-1" x="1367.4" y="212" width="9.2" height="58.7"/>
    <rect class="cls-1" x="1404.1" y="212" width="9.2" height="58.7"/>
    <rect class="cls-1" x="1413.3" y="212" width="9.2" height="58.7"/>
    <rect class="cls-1" x="1376.9" y="217.7" width="7.7" height="53"/>
    <rect class="cls-1" x="1390.8" y="217.7" width="7.7" height="53"/>
    <rect class="cls-1" x="1423" y="217.7" width="7.7" height="53"/>
    <line class="cls-1" x1="1352.9" y1="226" x2="1358.2" y2="226"/>
    <line class="cls-1" x1="1384.6" y1="226" x2="1390" y2="226"/>
    <line class="cls-1" x1="1398.8" y1="221.8" x2="1404.2" y2="221.8"/>
    <rect class="cls-1" x="1430.7" y="226" width="8.3" height="44.7"/>
  </g>
  <g>
    <rect class="cls-1" x="1072.1" y="376.1" width="9.2" height="54.4"/>
    <rect class="cls-1" x="1086.7" y="371.9" width="9.2" height="58.7"/>
    <rect class="cls-1" x="1096" y="371.9" width="9.2" height="58.7"/>
    <rect class="cls-1" x="1132.6" y="371.9" width="9.2" height="58.7"/>
    <rect class="cls-1" x="1141.8" y="371.9" width="9.2" height="58.7"/>
    <rect class="cls-1" x="1105.4" y="377.5" width="7.7" height="53"/>
    <rect class="cls-1" x="1119.4" y="377.5" width="7.7" height="53"/>
    <rect class="cls-1" x="1151.5" y="377.8" width="7.7" height="53"/>
    <line class="cls-1" x1="1081.4" y1="385.8" x2="1086.7" y2="385.8"/>
    <line class="cls-1" x1="1113.1" y1="385.8" x2="1118.5" y2="385.8"/>
    <line class="cls-1" x1="1127.3" y1="381.6" x2="1132.7" y2="381.6"/>
    <rect class="cls-1" x="1159.2" y="385.8" width="8.3" height="44.7"/>
  </g>
  <path class="cls-1" d="M1190.7,350.3h-54.6c-2.5,0-4.6-2-4.6-4.6v-17c0-2.5,2-4.6,4.5-4.6h54.6c2.5,0,4.6,2,4.6,4.6v17c0,2.5-2,4.6-4.5,4.6Z"/>
  <path class="cls-1" d="M1413.3,431h-54.6c-2.5,0-4.6-2-4.6-4.6v-17c0-2.5,2-4.6,4.5-4.6h54.6c2.5,0,4.6,2,4.6,4.6v17c0,2.5-2,4.6-4.5,4.6Z"/>
  <path class="cls-1" d="M1377.4,315.7v34.6h-19.2v-34.6c0,1.7,4.3,3,9.6,3s9.6-1.4,9.6-3Z"/>
  <path class="cls-1" d="M1403.3,337.1v13.2h-19.2v-13.2c0,1.6,4.3,2.9,9.6,2.9s9.6-1.3,9.6-2.9Z"/>
  <path class="cls-1" d="M1377.4,315.7c0,1.7-4.3,3-9.6,3s-9.6-1.4-9.6-3,4.3-3,9.6-3,9.6,1.4,9.6,3Z"/>
  <path class="cls-1" d="M1403.3,337.1c0,1.6-4.3,2.9-9.6,2.9s-9.6-1.3-9.6-2.9,4.3-2.9,9.6-2.9,9.6,1.3,9.6,2.9Z"/>
  <path class="cls-1" d="M1194.3,270.7h-24.4l-6.5-64.6c-.3-2.5,1.7-4.7,4.2-4.7h29.3c2.5,0,4.5,2.2,4.2,4.8l-6.8,64.5h0Z"/>
</svg>