<?xml version="1.0" encoding="utf-8"?>
<!-- Generator: Adobe Illustrator 27.5.0, SVG Export Plug-In . SVG Version: 6.00 Build 0)  -->
<svg version="1.1" id="Layer_1" xmlns="http://www.w3.org/2000/svg" xmlns:xlink="http://www.w3.org/1999/xlink" x="0px" y="0px"
	 viewBox="0 0 1531.8 682.8" style="enable-background:new 0 0 1531.8 682.8;" xml:space="preserve">
<style type="text/css">
	.st0{fill:none;stroke:#444444;stroke-width:2;}
	.st1{fill:none;stroke:#444444;stroke-width:2;stroke-miterlimit:10;}
	.st2{fill:none;stroke:#444444;stroke-miterlimit:10;}
</style>
<g id="c">
	<line class="st0" x1="454" y1="494.3" x2="453.2" y2="494.3"/>
	<polyline class="st0" points="998.7,494.3 998.2,494.3 756.7,494.3 746.3,494.3 735,494.3 	"/>
	<polyline class="st0" points="1530.8,494.3 1370.7,494.3 1360.6,494.3 1316.9,494.3 1169,494.3 	"/>
	<polyline class="st0" points="501.4,494.3 509.6,494.3 557.6,494.3 	"/>
	<line class="st0" x1="587.1" y1="494.3" x2="586.4" y2="494.3"/>
	<polyline class="st0" points="2.8,494.3 212.4,494.3 244.5,494.3 	"/>
</g>
<g id="d">
	<path class="st1" d="M967,585.2c0,34.3-87.6,62.2-195.7,62.2s-195.7-27.8-195.7-62.2c0-6.9,3.6-13.6,10.1-19.8l30,22.9l38.1-18.3
		l0,0l0,0c6-4.5,14.5-8.6,25-12l0,0l56.6-27.3l-0.1-6.6c11.7-0.7,23.7-1,36-1C879.4,523,967,550.9,967,585.2L967,585.2z"/>
	<path class="st1" d="M899.5,586.2c0,22.3-57.3,40.4-127.9,40.4s-127.9-18.1-127.9-40.4c0-5.6,3.6-11,10.2-15.8l0,0l0,0
		c6-4.5,14.5-8.5,25-12l0,0c23.3-7.7,56.2-12.6,92.7-12.6C842.2,545.8,899.5,563.9,899.5,586.2z"/>
	<ellipse class="st1" cx="774.9" cy="583.4" rx="63.1" ry="20"/>
</g>
<g id="e">
	<g>
		<g>
			<g>
				<polygon class="st1" points="1236.5,160.7 1236.5,493.2 1167.5,493.2 1136.4,470.1 1111.1,451.4 1079.3,463.5 1079.3,160.7 				
					"/>
				<line class="st1" x1="1079.6" y1="228" x2="1235.4" y2="228"/>
				<line class="st1" x1="1079.9" y1="297.1" x2="1235.8" y2="297.1"/>
				<line class="st1" x1="1080.3" y1="364.2" x2="1236.1" y2="364.2"/>
				<line class="st1" x1="1079.5" y1="432.9" x2="1235.3" y2="432.9"/>
				<rect x="1082.4" y="172.9" class="st1" width="14.6" height="54.7"/>
				<rect x="1097.2" y="178.7" class="st1" width="9.4" height="48.3"/>
				
					<rect x="1114.8" y="172.3" transform="matrix(0.9606 -0.2779 0.2779 0.9606 -11.2805 319.6559)" class="st1" width="14.6" height="54.7"/>
				<rect x="1169" y="242.2" class="st1" width="14.6" height="54.7"/>
				<rect x="1183.6" y="242.2" class="st1" width="7.3" height="54.7"/>
				<rect x="1163" y="265.9" class="st1" width="5.7" height="30.5"/>
				<rect x="1191" y="256.7" class="st1" width="12.7" height="39.9"/>
				<rect x="1147.7" y="323.8" class="st1" width="8.5" height="39.9"/>
				<rect x="1156.5" y="312.4" class="st1" width="16.2" height="51.4"/>
				<rect x="1172.7" y="323.9" class="st1" width="15.4" height="39.9"/>
				<rect x="1147.1" y="256.5" class="st1" width="15.4" height="39.9"/>
				
					<rect x="1193.6" y="317.4" transform="matrix(0.9606 -0.2779 0.2779 0.9606 -47.2855 346.0673)" class="st1" width="7.3" height="44.9"/>
				<rect x="1120.6" y="378" class="st1" width="14.6" height="54.7"/>
			</g>
			<rect x="1135.3" y="383.7" class="st1" width="7.3" height="48.6"/>
			<rect x="1114.9" y="402.3" class="st1" width="5.7" height="30.5"/>
			<rect x="1142.6" y="392.8" class="st1" width="12.7" height="39.9"/>
			<rect x="1098.7" y="392.9" class="st1" width="15.4" height="39.9"/>
		</g>
		<ellipse class="st1" cx="1217.4" cy="208.4" rx="17.2" ry="18.3"/>
	</g>
	<ellipse class="st1" cx="1199.9" cy="413.2" rx="22.9" ry="18.8"/>
</g>
<g id="f">
	<line class="st1" x1="0.6" y1="275.9" x2="400.8" y2="2"/>
	<line class="st1" x1="1528.4" y1="276.3" x2="1128.2" y2="2.4"/>
	<line class="st1" x1="1529.2" y1="200.2" x2="1240.7" y2="2.8"/>
	<line class="st1" x1="3.7" y1="200.3" x2="292.1" y2="2.9"/>
	<rect x="667" y="78.7" class="st1" width="8.4" height="254.3"/>
	<rect x="698.9" y="78.7" class="st1" width="9" height="254.3"/>
	<rect x="731.4" y="78.7" class="st1" width="62.6" height="254.3"/>
	<rect x="817.4" y="78.7" class="st1" width="8.4" height="254.3"/>
	<rect x="849.3" y="78.7" class="st1" width="9" height="254.3"/>
	<line class="st1" x1="825.9" y1="209.6" x2="817.4" y2="209.6"/>
	<line class="st1" x1="858.3" y1="209.6" x2="849.3" y2="209.6"/>
	<line class="st1" x1="707.9" y1="209.6" x2="698.9" y2="209.6"/>
	<polyline class="st1" points="675.4,209.6 672.8,209.6 667,209.6 	"/>
	<polyline class="st1" points="731.4,209.6 761.9,209.6 794,209.6 	"/>
	<line class="st1" x1="761.9" y1="78.6" x2="761.9" y2="331.7"/>
	<polygon class="st1" points="1169.8,494.9 1044.4,547.1 985.7,499.3 998.2,494.5 998.7,494.3 1058.8,471.4 1079.3,463.5 
		1111.1,451.4 1136.4,470.1 1167.5,493.2 1169,494.3 	"/>
	<polygon class="st1" points="985.2,500 985.2,580.3 1044.4,631 1044.4,631 1169.8,567.4 1044.4,631 1044.4,547.1 	"/>
	<polygon class="st1" points="1169.8,494.9 1169.8,567.4 1044.4,631 1044.4,547.1 	"/>
	<line class="st1" x1="1136.5" y1="470.1" x2="1136.4" y2="470.1"/>
	<line class="st1" x1="1136.4" y1="470.1" x2="1015.7" y2="523.3"/>
	<line class="st1" x1="1088.4" y1="555.8" x2="1135" y2="533.8"/>
	<line class="st1" x1="1134.2" y1="556" x2="1135" y2="533.8"/>
	<line class="st1" x1="1087.4" y1="577.2" x2="1134.2" y2="556"/>
	<line class="st1" x1="1088.4" y1="555.8" x2="1087.4" y2="577.2"/>
	<g>
		<g>
			<polygon class="st1" points="500.6,463.1 453.2,494.3 419,516.8 352,494.3 244.5,458.2 274.3,440.4 291,430.4 326.2,409.5 
				449,447.3 			"/>
			<path class="st1" d="M454,494.3L419,516.8v94.1l23.1-16c-0.1-1.5,0.3-3.6,1.1-6c1.9-5.7,12.8-24.5,18.2-33.6l-7.2,10.7
				c0,0-21.4,15.6-19.8,7.6c1.5-7.6,25.6-19,28-20.1c1.2-2,2-3.3,2-3.3c11.5,3.8,13.6,0.9,13.6,0.9s3.8,5.8,8.4,13.2l0.4-0.3
				l-7-10.4c0,0,6,2.8,12.5,6.5l9-6.2v-90.1L454,494.3L454,494.3z M480.3,549.7l-0.6,0c-1.8,1.1-4,1.8-6.5,1.9c0,0-4.1,0.8-8.6-1.8
				h-0.2c0,0,0.1,0,0.1,0c-0.1-0.1-0.2-0.1-0.4-0.2c0,0,0,0,0,0c-0.9-0.3-3.5-0.8-11-2c-13.7-2.1-8.7-13.1-8.7-13.1
				c7-25.3,27.9-23,27.9-23s17.8-1.8,23.1,13.9C500.7,541.1,504,543.9,480.3,549.7z"/>
			<path class="st1" d="M494.7,597.2c-0.8-3.7-4.3-6.5-8.5-6.5c-3.8,0-7,2.2-8.2,5.3l-1.8-0.1l-6.4-0.2l-2.6,0.3
				c-1.1-3.2-4.4-5.5-8.4-5.5c-4.7,0-8.5,3.2-8.7,7.3c-5.4,1.4-7.7,0.2-8-2.9c-0.1-1.5,0.3-3.6,1.1-6c1.9-5.7,12.8-24.5,18.2-33.6
				l0-0.1l1.2-1.8c0,0-0.1,0-0.2,0.1c1.2-2,2-3.3,2-3.3c11.5,3.8,13.6,0.9,13.6,0.9s3.8,5.8,8.4,13.2c6.8,10.8,15.2,24.9,15.6,29
				C502.7,598.4,497.4,597.8,494.7,597.2L494.7,597.2z"/>
			<path class="st1" d="M462.6,553.4l-1.2,1.8c0.4-0.6,0.7-1.2,1-1.7C462.6,553.4,462.6,553.4,462.6,553.4z"/>
			<path class="st1" d="M480.3,549.7l-0.6,0c-1.8,1.1-4,1.8-6.5,1.9c0,0-4.1,0.8-8.6-1.8h-0.2c0,0,0.1,0,0.1,0
				c-0.1-0.1-0.2-0.1-0.4-0.2c0,0,0,0,0,0c-0.9-0.3-3.5-0.8-11-2c-13.7-2.1-8.7-13.1-8.7-13.1c7-25.3,27.9-23,27.9-23
				s17.8-1.8,23.1,13.9C500.7,541.1,504,543.9,480.3,549.7z"/>
			<path class="st1" d="M352,494.3l-107.5-36.1v81.3l174.4,71.4v-94.1L352,494.3L352,494.3z M294,526.8l-1.1-24.9l64.9,24.6l1.4,24
				L294,526.8L294,526.8z"/>
			<polygon class="st1" points="359.2,550.5 294,526.8 292.9,501.9 357.8,526.5 			"/>
		</g>
		<line class="st1" x1="290.8" y1="430.4" x2="458.9" y2="490"/>
	</g>
	<line class="st1" x1="509.6" y1="495" x2="509.6" y2="2.3"/>
	<line class="st1" x1="449" y1="447.3" x2="449" y2="2.3"/>
	<line class="st1" x1="1058.8" y1="471.4" x2="1058.8" y2="3.3"/>
	<line class="st1" x1="998.2" y1="494.8" x2="998.2" y2="3.3"/>
	<line class="st1" x1="1316.9" y1="494.7" x2="1316.9" y2="130.8"/>
	<line class="st1" x1="1255" y1="493.5" x2="1255" y2="88.8"/>
	<line class="st1" x1="212.4" y1="494.3" x2="212.4" y2="130.5"/>
	<line class="st1" x1="274.3" y1="441" x2="274.3" y2="88.5"/>
	<path class="st1" d="M390.1,41.5c0,0,12.6-3.2,12,11.4"/>
	<path class="st1" d="M402.1,52.6c0,0,10.6-7.5,15.3,6.3"/>
	<path class="st1" d="M371,58.5c0,0,18.2-4.4,17.3,15.9"/>
	<path class="st1" d="M404.6,29.2c0,0,9.3-2.6,9.3,7.5"/>
	<path class="st1" d="M415,20.9c0,0,6-1.6,6,4.3"/>
	<g>
		<line class="st1" x1="438.9" y1="1.8" x2="388.9" y2="131.7"/>
		<line class="st1" x1="438.1" y1="0.9" x2="359.2" y2="115.5"/>
		<line class="st1" x1="436.4" y1="2.1" x2="331.2" y2="93.1"/>
		<line class="st1" x1="436.2" y1="0.9" x2="312.6" y2="64.9"/>
		<line class="st1" x1="438.8" y1="1.1" x2="426.9" y2="139.8"/>
		<path class="st1" d="M417,58.7c0,0,8.6-9.8,16.3,2.5"/>
		<path class="st1" d="M433.5,63.3c0,0,2.7-14.2,16.1-7.5"/>
		<path class="st1" d="M377.7,31.2c0,0,12.5-3.7,12.5,10.8"/>
		<path class="st1" d="M375.5,19.5c0,0,8-0.7,5.1,10.3"/>
		<path class="st1" d="M388.4,74.4c0,0,13.5-10.8,20.5,10.4"/>
		<path class="st1" d="M408.4,84.6c0,0,11.8-14.4,22.6,3.8"/>
		<path class="st1" d="M431.1,88.4c0,0,5.9-13.9,19.1-1.2"/>
		<path class="st1" d="M355.2,42.9c0,0,16-5.1,16,14.7"/>
		<path class="st1" d="M355.6,33.3c0,0,6.1-0.6,3.9,8.3"/>
		<path class="st1" d="M349.1,77.8c0,0,22.3-6,21.2,21.6"/>
		<path class="st1" d="M370.3,99.5c0,0,16.1-16,25.2,16.3"/>
		<path class="st1" d="M395.8,115.7c0,0,16.5-24.2,32.1,6.8"/>
		<path class="st1" d="M428.3,122.1c0,0,6.1-18,21.2-1"/>
		<path class="st1" d="M331.4,55.7c0,0,18.6-7.4,18.7,21.5"/>
		<path class="st1" d="M330.1,50.1c0,0,3.3-0.5,2,5.8"/>
		<path class="st1" d="M413.3,36.6c0,0,9.9-1.7,9.4,6.2"/>
		<path class="st1" d="M423.2,42.3c0,0,7.4-6.1,11.7,4.5"/>
		<path class="st1" d="M434.4,48.3c0,0,0.2-10.7,14.8-4.9"/>
		<path class="st1" d="M390.7,9.5c0,0,9-0.8,5.8,11.6"/>
		<path class="st1" d="M396.7,20.7c0,0,6.9-4,8.9,7.9"/>
		<path class="st1" d="M420.4,25.2c0,0,7.8-1.4,7.4,5.2"/>
		<path class="st1" d="M427.8,30.4c0,0,5.6-4.1,8.1,2.3"/>
		<path class="st1" d="M435.8,32.6c0,0,6.2-8.4,13.4,1.2"/>
		<path class="st1" d="M400.1,2.2c0,0,14.1,0.6,10.9,11.7"/>
		<path class="st1" d="M409.6,14.7c0,0,3.7-2.7,5.2,6"/>
	</g>
	<g>
		<line class="st1" x1="418.5" y1="87.8" x2="418.7" y2="80.8"/>
		<g>
			<ellipse class="st1" cx="419.1" cy="94.9" rx="6.8" ry="6.2"/>
			<ellipse class="st1" cx="412.2" cy="89.1" rx="3.4" ry="3.1"/>
			<line class="st1" x1="423.4" y1="90.3" x2="427.6" y2="82.1"/>
			<line class="st1" x1="425" y1="92.3" x2="435.6" y2="91.1"/>
			<line class="st1" x1="425.9" y1="96.3" x2="435.8" y2="97.6"/>
			<line class="st1" x1="412.9" y1="96.9" x2="403.9" y2="95.9"/>
			<line class="st1" x1="415.1" y1="99" x2="405.8" y2="104.5"/>
			<line class="st1" x1="416.2" y1="100.8" x2="413.6" y2="110.7"/>
			<line class="st1" x1="419.2" y1="100.5" x2="420.4" y2="111.2"/>
		</g>
	</g>
	<g>
		<g>
			<polygon class="st1" points="1386.8,547.7 1289.6,515.9 1244.1,544.8 1341.3,579.4 			"/>
			<polygon class="st1" points="1387.2,548.2 1387.2,601.4 1341.3,635.1 1341.3,635.1 1244.1,592.8 1341.3,635.1 1341.3,579.4 			
				"/>
			<polygon class="st1" points="1244.1,544.8 1244.1,592.8 1341.3,635.1 1341.3,579.4 			"/>
		</g>
		<line class="st1" x1="1269.8" y1="529.3" x2="1363.5" y2="564.6"/>
	</g>
</g>
<g id="i">
	<g>
		<path class="st1" d="M480.3,549.7l-0.6,0l-15.1,0.1h-0.2c0,0,0.1,0,0.1,0c0,0,0-0.1-0.4-0.2c0,0,0,0,0,0c-0.9-0.3-3.5-0.8-11-2
			c-13.7-2.1-8.7-13.1-8.7-13.1c7-25.3,27.9-23,27.9-23s17.8-1.8,23.1,13.9C500.7,541.1,504,543.9,480.3,549.7z"/>
		<path class="st1" d="M462.5,553.5c-0.3,0.5-0.6,1.1-1,1.7l0,0.1l-7.2,10.7c0,0-21.4,15.6-19.8,7.6C436,566,460,554.6,462.5,553.5
			L462.5,553.5z"/>
		<path class="st1" d="M462.6,553.4l-1.2,1.8c0.4-0.6,0.7-1.2,1-1.7C462.6,553.4,462.6,553.4,462.6,553.4z"/>
		<path class="st1" d="M488.3,566.2l-1.5-2.2l-7-10.4c0,0,6,2.8,12.5,6.5c7.1,4.1,14.8,9.5,15.7,13.7
			C509.7,581.9,488.3,566.2,488.3,566.2z"/>
		<path class="st1" d="M489.2,534.1c0,0-2,11.1-9.5,15.7c-1.8,1.1-4,1.8-6.5,1.9c0,0-4.1,0.8-8.6-1.8c0,0,0,0-0.1,0
			c-0.1-0.1-0.2-0.1-0.4-0.2c0,0,0,0,0,0c-3.6-2.2-7.5-6.6-9.6-15.2c0.4,0,0.8,0,1.3,0c1.5,0,3.1-0.1,3.6-0.2
			c4.5-0.8,10.3-3.4,12.5-11.1C472,523.1,476,534.4,489.2,534.1L489.2,534.1z"/>
		<path class="st1" d="M467.5,598.2c0,4.3-3.9,7.7-8.7,7.7s-8.7-3.5-8.7-7.7c0-0.1,0-0.3,0-0.4c0.2-4.1,4-7.3,8.7-7.3
			c4,0,7.3,2.3,8.4,5.5C467.4,596.7,467.5,597.4,467.5,598.2z"/>
		<path class="st1" d="M494.9,598.8c0,4.5-3.9,8.1-8.7,8.1s-8.7-3.6-8.7-8.1c0-1,0.2-1.9,0.5-2.8c1.2-3.1,4.4-5.3,8.2-5.3
			c4.2,0,7.7,2.8,8.5,6.5C494.8,597.7,494.9,598.2,494.9,598.8z"/>
		<ellipse class="st2" cx="464.4" cy="538" rx="2.2" ry="2.4"/>
		<ellipse class="st2" cx="480.6" cy="538.4" rx="2.2" ry="2.4"/>
	</g>
</g>
<g id="j">
	<g>
		<path class="st1" d="M130.3,339.8c0,0-6.8-1.6-7.4,2.1s0.2,41.9,0.2,41.9"/>
		<path class="st1" d="M183.2,339.2c0,0,6.8-1.7,7.5,2s0.2,41.9,0.2,41.9"/>
		<polyline class="st1" points="137.1,387.5 137.2,408.8 149.8,408.7 149.7,387.9 137.1,387.9 149.7,387.9 137.1,387.9 149.7,387.9 
					"/>
		<polyline class="st1" points="165.2,387.3 165.3,408.6 178,408.5 177.9,387.7 165.2,387.8 177.9,387.7 165.2,387.8 177.9,387.7 		
			"/>
		
			<rect x="137.4" y="305" transform="matrix(1 -3.926981e-03 3.926981e-03 1 -1.2477 0.6175)" class="st1" width="38.5" height="26.2"/>
		
			<rect x="130.9" y="330.9" transform="matrix(1 -3.926981e-03 3.926981e-03 1 -1.4099 0.6184)" class="st1" width="51.7" height="56.9"/>
		
			<rect x="134.8" y="408.8" transform="matrix(1 -3.926981e-03 3.926981e-03 1 -1.6113 0.5676)" class="st1" width="17.8" height="3.6"/>
		
			<rect x="163" y="408.7" transform="matrix(1 -3.926981e-03 3.926981e-03 1 -1.6106 0.6783)" class="st1" width="17.8" height="3.6"/>
		<line class="st1" x1="143.2" y1="323.1" x2="169.8" y2="323"/>
		
			<ellipse transform="matrix(1 -3.926981e-03 3.926981e-03 1 -1.2308 0.5705)" class="st2" cx="144.7" cy="313.7" rx="2.9" ry="2.9"/>
		
			<ellipse transform="matrix(1 -3.926981e-03 3.926981e-03 1 -1.2306 0.6613)" class="st2" cx="167.8" cy="313.7" rx="2.9" ry="2.9"/>
		<ellipse transform="matrix(1 -3.926981e-03 3.926981e-03 1 -1.375 0.6165)" class="st1" cx="156.3" cy="350.4" rx="10" ry="5.6"/>
	</g>
	<line class="st1" x1="572.4" y1="85" x2="572.4" y2="2.2"/>
	<circle class="st1" cx="572.7" cy="126.1" r="42.3"/>
	<g>
		<g>
			<polygon class="st1" points="734.6,466.8 665.4,494.3 614.8,514.4 587.1,494.3 578.5,488 586.9,493.8 702.2,445.4 			"/>
			<polygon class="st1" points="702.2,445.4 586.9,493.8 578.5,488 558.2,473.3 557.8,473 677.7,429.3 			"/>
			<polygon class="st1" points="615.8,588.3 585.8,565.4 558.3,544.4 557.6,494.3 557.3,473.7 586.4,494.3 614.8,514.4 615.2,547.7 
							"/>
			<path class="st1" d="M678.9,557.9l-25,12C659.9,565.5,668.4,561.4,678.9,557.9z"/>
			<path class="st1" d="M735.4,530.7l-56.6,27.3l0,0c-10.4,3.5-18.9,7.5-25,12l0,0l0,0l-38.1,18.3l-0.5-40.6l-0.5-33.3l50.6-20.1
				l69.2-27.5l0.4,27.5l0.4,29.8L735.4,530.7L735.4,530.7z"/>
		</g>
		<polyline class="st1" points="578.5,488 557.3,473.7 558.2,473.3 677.7,429.3 702.4,445.4 702.2,445.4 		"/>
		<polygon class="st1" points="557.3,473.7 533,445.5 654.1,401 677.7,429.3 		"/>
		<g>
			<line class="st1" x1="734.8" y1="465.8" x2="747.5" y2="484.3"/>
			<polygon class="st1" points="747.1,483.8 745,491.6 752.6,507.8 761.2,504.1 753.7,488 			"/>
		</g>
	</g>
	<rect x="19.1" y="414.1" class="st1" width="177" height="38"/>
	<rect x="34" y="451.9" class="st1" width="15.1" height="42.2"/>
	<rect x="165.9" y="452.3" class="st1" width="15.1" height="42"/>
	<rect x="1350.6" y="441.8" class="st1" width="118.3" height="25.4"/>
	<rect x="1360.6" y="467.1" class="st1" width="10.1" height="27.3"/>
	<rect x="1448.8" y="467.4" class="st1" width="10.1" height="26.6"/>
	<rect x="1390.7" y="426.3" class="st1" width="46.2" height="14.7"/>
	<rect x="1374.9" y="394.9" class="st1" width="14.7" height="46.2"/>
	<rect x="1394.1" y="411.8" class="st1" width="46.2" height="14.7"/>
	<line class="st1" x1="825.9" y1="78.7" x2="817.4" y2="78.7"/>
	<polyline class="st1" points="908.6,78.7 893.6,78.7 881.8,78.7 	"/>
	<line class="st1" x1="858.3" y1="78.7" x2="849.3" y2="78.7"/>
	<line class="st1" x1="707.9" y1="78.7" x2="698.9" y2="78.7"/>
	<polyline class="st1" points="620.1,78.7 636.2,78.7 643.5,78.7 	"/>
	<line class="st1" x1="675.4" y1="78.7" x2="667" y2="78.7"/>
	<polyline class="st1" points="731.4,78.7 761.9,78.7 794,78.7 	"/>
	<ellipse class="st2" cx="901.7" cy="79.3" rx="8.1" ry="8"/>
	<ellipse class="st2" cx="628.1" cy="78.8" rx="8.1" ry="8"/>
	<rect x="643.5" y="69.3" class="st1" width="23.5" height="296.9"/>
	<rect x="675.4" y="69.1" class="st1" width="23.5" height="296.9"/>
	<rect x="707.9" y="69.1" class="st1" width="23.5" height="296.9"/>
	<rect x="794" y="68.8" class="st1" width="23.5" height="296.9"/>
	<rect x="825.9" y="68.6" class="st1" width="23.5" height="296.9"/>
	<rect x="858.3" y="68.8" class="st1" width="23.5" height="296.9"/>
</g>
</svg>
