<?xml version="1.0" encoding="UTF-8"?>
<svg id="Layer_1" data-name="Layer 1" xmlns="http://www.w3.org/2000/svg" width="750" height="1264" version="1.1" xmlns:xlink="http://www.w3.org/1999/xlink" viewBox="0 0 750 1264">
  <defs>
    <style>
      .cls-1, .cls-2, .cls-3 {
        fill: none;
      }

      .cls-1, .cls-4 {
        stroke-width: 0px;
      }

      .cls-2 {
        stroke-width: 2px;
      }

      .cls-2, .cls-3 {
        stroke: #000;
      }

      .cls-5 {
        clip-path: url(#clippath-1);
      }

      .cls-6 {
        clip-path: url(#clippath);
      }

      .cls-3 {
        stroke-width: 2px;
      }

      .cls-4 {
        fill: #fff;
      }

      .cls-7 {
        display: none;
      }
    </style>
    <clipPath id="clippath">
      <rect class="cls-1" x="76.6" y="632.6" width="194.3" height="292.3"/>
    </clipPath>
    <clipPath id="clippath-1">
      <rect class="cls-1" x="302.5" y="633.9" width="194.3" height="292.3"/>
    </clipPath>
  </defs>
  <g id="Layer_2" data-name="Layer 2" class="cls-7">
    <rect class="cls-4" width="750" height="1264"/>
  </g>
  <g id="Layer_1-2" data-name="Layer 1">
    <line class="cls-2" x1="750" y1="880" x2="691" y2="880"/>
    <line class="cls-2" x1="59.4" y1="880" y2="880"/>
  </g>
  <g id="Layer_4" data-name="Layer 4">
    <line class="cls-2" x1="650.9" y1="960" x2="97.2" y2="960"/>
    <line class="cls-2" x1="751" y1="960" x2="671.2" y2="960"/>
    <line class="cls-2" x1="76.9" y1="960" x2="-2" y2="960"/>
  </g>
  <g id="Layer_3" data-name="Layer 3">
    <rect class="cls-2" x="363.6" y="960" width="17.8" height="24.3"/>
    <path class="cls-2" d="M59.4,620.3v316.8h631.6v-316.8H59.4ZM277.4,925.2H66.9v-293.1h210.5v293.1ZM492.4,925.2h-200v-293.1h200v293.1Z"/>
    <rect class="cls-2" x="267.4" y="632.2" width="10" height="293.1"/>
    <rect class="cls-2" x="257.4" y="632.2" width="10" height="293.1"/>
    <rect class="cls-2" x="247.4" y="632.2" width="10" height="293.1"/>
    <rect class="cls-2" x="237.4" y="632.2" width="10" height="293.1"/>
    <rect class="cls-2" x="227.4" y="632.2" width="10" height="293.1"/>
    <rect class="cls-2" x="217.4" y="632.2" width="10" height="293.1"/>
    <rect class="cls-2" x="207.4" y="632.2" width="10" height="293.1"/>
    <rect class="cls-2" x="197.4" y="632.2" width="10" height="293.1"/>
    <rect class="cls-2" x="187.4" y="632.2" width="10" height="293.1"/>
    <rect class="cls-2" x="177.4" y="632.2" width="10" height="293.1"/>
    <rect class="cls-2" x="167.4" y="632.2" width="10" height="293.1"/>
    <rect class="cls-2" x="157.4" y="632.2" width="10" height="293.1"/>
    <rect class="cls-2" x="147.4" y="632.2" width="10" height="293.1"/>
    <rect class="cls-2" x="138.4" y="632.2" width="9" height="293.1"/>
    <rect class="cls-2" x="128.4" y="632.2" width="10" height="293.1"/>
    <rect class="cls-2" x="98.4" y="632.2" width="10" height="293.1"/>
    <rect class="cls-2" x="88.4" y="632.2" width="10" height="293.1"/>
    <rect class="cls-2" x="108.4" y="632.2" width="10" height="293.1"/>
    <rect class="cls-2" x="78.4" y="632.2" width="10" height="293.1"/>
    <rect class="cls-2" x="66.9" y="632.2" width="11.5" height="293.1"/>
    <rect class="cls-2" x="492.4" y="632.2" width="10.5" height="293.1"/>
    <rect class="cls-2" x="482.4" y="632.2" width="10" height="293.1"/>
    <rect class="cls-2" x="472.4" y="632.2" width="10" height="293.1"/>
    <rect class="cls-2" x="462.4" y="632.2" width="10" height="293.1"/>
    <rect class="cls-2" x="452.4" y="632.2" width="10" height="293.1"/>
    <rect class="cls-2" x="442.4" y="632.2" width="10" height="293.1"/>
    <rect class="cls-2" x="432.4" y="632.2" width="10" height="293.1"/>
    <rect class="cls-2" x="422.4" y="632.2" width="10" height="293.1"/>
    <rect class="cls-2" x="412.4" y="632.2" width="10" height="293.1"/>
    <rect class="cls-2" x="402.4" y="632.2" width="10" height="293.1"/>
    <rect class="cls-2" x="392.4" y="632.2" width="10" height="293.1"/>
    <rect class="cls-2" x="382.4" y="632.2" width="10" height="293.1"/>
    <rect class="cls-2" x="372.4" y="632.2" width="10" height="293.1"/>
    <rect class="cls-2" x="363.4" y="632.2" width="9" height="293.1"/>
    <rect class="cls-2" x="353.4" y="632.2" width="10" height="293.1"/>
    <rect class="cls-2" x="343.4" y="632.2" width="10" height="293.1"/>
    <rect class="cls-2" x="333.4" y="632.2" width="10" height="293.1"/>
    <rect class="cls-2" x="323.4" y="632.2" width="10" height="293.1"/>
    <rect class="cls-2" x="313.4" y="632.2" width="10" height="293.1"/>
    <rect class="cls-2" x="303.4" y="632.2" width="10" height="293.1"/>
    <rect class="cls-2" x="292.3" y="632.2" width="11" height="293.1"/>
    <line class="cls-2" x1="512.5" y1="620.3" x2="512.5" y2="937.1"/>
    <line class="cls-2" x1="512.5" y1="730.9" x2="691" y2="730.9"/>
    <rect class="cls-2" x="576.3" y="679.4" width="50.9" height="11"/>
    <rect class="cls-2" x="576.3" y="780" width="50.9" height="11"/>
    <g class="cls-6">
      <g class="cls-7">
        <line class="cls-2" x1="78.2" y1="632.6" x2="78.2" y2="925.6"/>
        <line class="cls-2" x1="88.1" y1="632.6" x2="88.1" y2="925.6"/>
        <line class="cls-2" x1="98.1" y1="632.6" x2="98.1" y2="925.6"/>
        <line class="cls-2" x1="108" y1="632.6" x2="108" y2="925.6"/>
        <line class="cls-2" x1="117.9" y1="632.6" x2="117.9" y2="925.6"/>
        <line class="cls-2" x1="127.8" y1="632.6" x2="127.8" y2="925.6"/>
        <line class="cls-2" x1="137.8" y1="632.6" x2="137.8" y2="925.6"/>
        <line class="cls-2" x1="147.7" y1="632.6" x2="147.7" y2="925.6"/>
        <line class="cls-2" x1="157.6" y1="632.6" x2="157.6" y2="925.6"/>
        <line class="cls-2" x1="167.5" y1="632.6" x2="167.5" y2="925.6"/>
        <line class="cls-2" x1="177.5" y1="632.6" x2="177.5" y2="925.6"/>
        <line class="cls-2" x1="187.4" y1="632.6" x2="187.4" y2="925.6"/>
        <line class="cls-2" x1="197.3" y1="632.6" x2="197.3" y2="925.6"/>
        <line class="cls-2" x1="207.3" y1="632.6" x2="207.3" y2="925.6"/>
        <line class="cls-2" x1="217.2" y1="632.6" x2="217.2" y2="925.6"/>
        <line class="cls-2" x1="227.1" y1="632.6" x2="227.1" y2="925.6"/>
        <line class="cls-2" x1="237" y1="632.6" x2="237" y2="925.6"/>
        <line class="cls-2" x1="247" y1="632.6" x2="247" y2="925.6"/>
        <line class="cls-2" x1="256.9" y1="632.6" x2="256.9" y2="925.6"/>
        <line class="cls-2" x1="266.8" y1="632.6" x2="266.8" y2="925.6"/>
      </g>
    </g>
    <g class="cls-5">
      <g>
        <g id="_Grid_Repeat_" data-name="&amp;lt;Grid Repeat&amp;gt;">
          <path class="cls-2" d="M433.1,633.9"/>
          <path class="cls-2" d="M433.1,340.8"/>
        </g>
        <g id="_Grid_Repeat_-2" data-name="&amp;lt;Grid Repeat&amp;gt;">
          <path class="cls-2" d="M433.1,927"/>
          <path class="cls-2" d="M433.1,633.9"/>
        </g>
      </g>
    </g>
    <circle class="cls-2" cx="239.5" cy="381.9" r="180.1"/>
    <circle class="cls-2" cx="239.5" cy="381.9" r="173.4"/>
    <rect class="cls-2" x="577.3" y="510.7" width="13.2" height="17.5"/>
    <path class="cls-2" d="M618.5,548.4v71.9h-69.3v-71.9c0-11.1,9-20.2,20.2-20.2h29c11.1,0,20.2,9,20.2,20.2Z"/>
    <rect class="cls-2" x="530.2" y="398.4" width="105" height="112.3"/>
    <rect class="cls-2" x="418.6" y="610.5" width="53.2" height="9.8"/>
    <path class="cls-2" d="M507.5,562v21.5c0,14.9-12,26.9-26.9,26.9h-75.1c-14.9,0-26.9-12.1-26.9-26.9v-21.5h128.9Z"/>
    <line class="cls-2" x1="78.4" y1="632.2" x2="78.4" y2="632"/>
    <line class="cls-2" x1="88.4" y1="632.2" x2="88.4" y2="632"/>
    <line class="cls-2" x1="98.4" y1="632.2" x2="98.4" y2="632"/>
    <line class="cls-2" x1="108.4" y1="632.2" x2="108.4" y2="632"/>
    <line class="cls-3" x1="118.4" y1="632.2" x2="118.4" y2="632"/>
    <line class="cls-3" x1="118.4" y1="925" x2="118.4" y2="880"/>
    <line class="cls-2" x1="128.4" y1="632.2" x2="128.4" y2="632"/>
    <line class="cls-2" x1="138.4" y1="632.2" x2="138.4" y2="632"/>
    <line class="cls-2" x1="147.4" y1="632.2" x2="147.4" y2="632"/>
    <line class="cls-2" x1="157.4" y1="632.2" x2="157.4" y2="632"/>
    <line class="cls-2" x1="167.4" y1="632.2" x2="167.4" y2="632"/>
    <line class="cls-2" x1="177.4" y1="632.2" x2="177.4" y2="632"/>
    <line class="cls-2" x1="187.4" y1="632.2" x2="187.4" y2="632"/>
    <line class="cls-2" x1="197.4" y1="632.2" x2="197.4" y2="632"/>
    <line class="cls-2" x1="207.4" y1="632.2" x2="207.4" y2="632"/>
    <line class="cls-2" x1="217.4" y1="632.2" x2="217.4" y2="632"/>
    <line class="cls-2" x1="227.4" y1="632.2" x2="227.4" y2="632"/>
    <line class="cls-2" x1="237.4" y1="632.2" x2="237.4" y2="632"/>
    <line class="cls-2" x1="247.4" y1="632.2" x2="247.4" y2="632"/>
    <line class="cls-2" x1="257.4" y1="632.2" x2="257.4" y2="632"/>
    <line class="cls-2" x1="267.4" y1="632.2" x2="267.4" y2="632"/>
    <line class="cls-2" x1="303.4" y1="632.2" x2="303.4" y2="632"/>
    <line class="cls-2" x1="313.4" y1="632.2" x2="313.4" y2="632"/>
    <line class="cls-2" x1="323.4" y1="632.2" x2="323.4" y2="632"/>
    <line class="cls-2" x1="333.4" y1="632.2" x2="333.4" y2="632"/>
    <line class="cls-2" x1="343.4" y1="632.2" x2="343.4" y2="632"/>
    <line class="cls-2" x1="353.4" y1="632.2" x2="353.4" y2="632"/>
    <line class="cls-2" x1="363.4" y1="632.2" x2="363.4" y2="632"/>
    <line class="cls-2" x1="372.4" y1="632.2" x2="372.4" y2="632"/>
    <line class="cls-2" x1="382.4" y1="632.2" x2="382.4" y2="632"/>
    <line class="cls-2" x1="392.4" y1="632.2" x2="392.4" y2="632"/>
    <line class="cls-2" x1="402.4" y1="632.2" x2="402.4" y2="632"/>
    <line class="cls-2" x1="412.4" y1="632.2" x2="412.4" y2="632"/>
    <line class="cls-2" x1="422.4" y1="632.2" x2="422.4" y2="632"/>
    <line class="cls-2" x1="432.4" y1="632.2" x2="432.4" y2="632"/>
    <line class="cls-2" x1="442.4" y1="632.2" x2="442.4" y2="632"/>
    <line class="cls-2" x1="452.4" y1="632.2" x2="452.4" y2="632"/>
    <line class="cls-2" x1="462.4" y1="632.2" x2="462.4" y2="632"/>
    <line class="cls-2" x1="472.4" y1="632.2" x2="472.4" y2="632"/>
    <line class="cls-2" x1="482.4" y1="632.2" x2="482.4" y2="632"/>
    <line class="cls-2" x1="492.4" y1="632.2" x2="492.4" y2="632"/>
    <polygon class="cls-2" points="111.1 937.1 97.2 960 83.2 983 69 983 76.9 960 84.8 937.1 111.1 937.1"/>
    <polygon class="cls-2" points="679.1 983 664.9 983 650.9 960 637 937.1 663.3 937.1 671.2 960 679.1 983"/>
    <line class="cls-2" x1="111.1" y1="937.1" x2="84.8" y2="937.1"/>
  </g>
</svg>