<?xml version="1.0" encoding="UTF-8"?>
<svg id="Layer_1" data-name="Layer 1" xmlns="http://www.w3.org/2000/svg" width="1528" height="680" version="1.1" xmlns:xlink="http://www.w3.org/1999/xlink" viewBox="0 0 1528 680">
  <defs>
    <style>
      .cls-1 {
        stroke: #fff;
      }

      .cls-1, .cls-2 {
        fill: #fff;
      }

      .cls-1, .cls-2, .cls-3, .cls-4 {
        stroke-width: 2px;
      }

      .cls-2, .cls-3, .cls-4 {
        stroke: #000;
      }

      .cls-5 {
        clip-path: url(#clippath-2);
      }

      .cls-6 {
        clip-path: url(#clippath-6);
      }

      .cls-7 {
        stroke-width: 0px;
      }

      .cls-7, .cls-3 {
        fill: none;
      }

      .cls-8 {
        clip-path: url(#clippath-7);
      }

      .cls-9 {
        clip-path: url(#clippath-1);
      }

      .cls-10 {
        clip-path: url(#clippath-4);
      }

      .cls-11 {
        clip-path: url(#clippath-9);
      }

      .cls-12 {
        clip-path: url(#clippath);
      }

      .cls-13 {
        clip-path: url(#clippath-3);
      }

      .cls-14 {
        clip-path: url(#clippath-8);
      }

      .cls-4 {
        fill: #231f20;
      }

      .cls-15 {
        clip-path: url(#clippath-5);
      }

      .cls-16 {
        display: none;
      }

      .cls-17 {
        clip-path: url(#clippath-10);
      }
    </style>
    <clipPath id="clippath">
      <rect class="cls-7" x="395" y="485" width="36.2" height="43"/>
    </clipPath>
    <clipPath id="clippath-1">
      <rect class="cls-7" x="717.8" y="485" width="36.2" height="43"/>
    </clipPath>
    <clipPath id="clippath-2">
      <rect class="cls-7" x="399.7" y="323.2" width="116.5" height="162.5"/>
    </clipPath>
    <clipPath id="clippath-3">
      <rect class="cls-7" x="530.6" y="324" width="116.1" height="170.1"/>
    </clipPath>
    <clipPath id="clippath-4">
      <rect class="cls-7" x="68.2" y="465.4" width="27.1" height="59"/>
    </clipPath>
    <clipPath id="clippath-5">
      <rect class="cls-7" x="254" y="465.4" width="27.1" height="59"/>
    </clipPath>
    <clipPath id="clippath-6">
      <rect class="cls-7" x="113.8" y="150.9" width="121.8" height="15"/>
    </clipPath>
    <clipPath id="clippath-7">
      <rect class="cls-7" x="94.7" y="158.4" width="26.9" height="115.7"/>
    </clipPath>
    <clipPath id="clippath-8">
      <rect class="cls-7" x="119.9" y="158.4" width="26.9" height="115.7"/>
    </clipPath>
    <clipPath id="clippath-9">
      <rect class="cls-7" x="94.7" y="158.4" width="26.9" height="115.7"/>
    </clipPath>
    <clipPath id="clippath-10">
      <rect class="cls-7" x="119.9" y="158.4" width="26.9" height="115.7"/>
    </clipPath>
  </defs>
  <g id="Layer_16" data-name="Layer 16" class="cls-16">
    <rect class="cls-1" width="1528" height="680"/>
  </g>
  <g id="Floor_line" data-name="Floor line">
    <line class="cls-3" x1="390.7" y1="491.2" x2="273.6" y2="491.2"/>
    <line class="cls-3" x1="526.3" y1="491.2" x2="517.6" y2="491.2"/>
    <line class="cls-3" x1="1528" y1="491.2" x2="758.2" y2="491.2"/>
    <line class="cls-3" x1="75.6" y1="491.2" y2="491.2"/>
    <line class="cls-3" x1="262.4" y1="491.2" x2="86.9" y2="491.2"/>
  </g>
  <g id="rug">
    <polygon class="cls-3" points="1445.8 641.5 73.3 641.5 122.8 513.3 269.1 513.3 272.1 523.1 279.6 523.1 277.8 513.3 401.6 513.3 396.4 527 404.9 527 413 513.3 734.4 513.3 742.5 527 751 527 745.8 513.3 1393.7 513.3 1445.8 641.5"/>
  </g>
  <rect class="cls-3" x="1126.9" y="64.5" width="8.7" height="243.3"/>
  <rect class="cls-3" x="1164.5" y="64.5" width="8.7" height="243.3"/>
  <rect class="cls-3" x="1202.1" y="64.5" width="163.8" height="243.3"/>
  <rect class="cls-3" x="1394.8" y="64.5" width="9.1" height="243.3"/>
  <rect class="cls-3" x="1432.8" y="64.5" width="9.1" height="243.3"/>
  <line class="cls-3" x1="1365.9" y1="54.5" x2="1202.1" y2="54.5"/>
  <line class="cls-3" x1="1441.9" y1="54.5" x2="1432.8" y2="54.5"/>
  <line class="cls-3" x1="1477.7" y1="54.5" x2="1470.8" y2="54.5"/>
  <line class="cls-3" x1="1403.9" y1="54.5" x2="1394.8" y2="54.5"/>
  <line class="cls-3" x1="1098" y1="54.5" x2="1086.1" y2="54.5"/>
  <line class="cls-3" x1="1135.6" y1="54.5" x2="1126.9" y2="54.5"/>
  <line class="cls-3" x1="1173.1" y1="54.5" x2="1164.5" y2="54.5"/>
  <circle class="cls-4" cx="1081.9" cy="54.7" r="6.2"/>
  <line class="cls-3" x1="1365.9" y1="193.2" x2="1202.1" y2="193.2"/>
  <line class="cls-3" x1="1441.9" y1="193.2" x2="1432.8" y2="193.2"/>
  <line class="cls-3" x1="1403.9" y1="193.2" x2="1394.8" y2="193.2"/>
  <line class="cls-3" x1="1126.9" y1="193.2" x2="1135.6" y2="193.2"/>
  <line class="cls-3" x1="1173.1" y1="193.2" x2="1164.5" y2="193.2"/>
  <rect class="cls-3" x="1098" y="46.9" width="28.9" height="383.4"/>
  <rect class="cls-3" x="1135.6" y="46.9" width="28.9" height="383.4"/>
  <rect class="cls-3" x="1173.1" y="46.9" width="28.9" height="260.9"/>
  <rect class="cls-3" x="1173.1" y="307.8" width="28.9" height="122.4"/>
  <rect class="cls-3" x="1365.9" y="46.9" width="28.9" height="383.4"/>
  <rect class="cls-3" x="1403.9" y="46.9" width="28.9" height="383.4"/>
  <rect class="cls-3" x="1441.9" y="46.9" width="28.9" height="383.4"/>
  <line class="cls-3" x1="1283" y1="64.5" x2="1283" y2="307.8"/>
  <circle class="cls-4" cx="1483.9" cy="54.5" r="6.2"/>
  <g id="table">
    <g id="table_stems" data-name="table stems">
      <polygon class="cls-3" points="420.6 500.5 413 513.3 404.9 527 396.4 527 401.6 513.3 406.5 500.5 420.6 500.5"/>
    </g>
    <g class="cls-16">
      <g id="_Mirror_Repeat_" data-name="&amp;lt;Mirror Repeat&amp;gt;">
        <g class="cls-12">
          <polygon class="cls-2" points="412 486 429.4 486 404.9 527 396.4 527 412 486"/>
        </g>
      </g>
      <g id="_Mirror_Repeat_-2" data-name="&amp;lt;Mirror Repeat&amp;gt;">
        <g class="cls-9">
          <polygon class="cls-2" points="737 486 719.6 486 744.1 527 752.6 527 737 486"/>
        </g>
      </g>
    </g>
    <rect class="cls-3" x="567.7" y="493.5" width="10.4" height="34.4"/>
    <polyline class="cls-3" points="740.9 500.5 745.8 513.3 751 527 742.5 527 734.4 513.3 726.8 500.5"/>
    <path class="cls-3" d="M758.2,380.5v-64.4h-367.5v184.4h177v-6.9h10.4v6.9h76.3M395.1,323v170.5h122.5v-170.5h-122.5Z"/>
    <path class="cls-3" d="M654.4,380.5v120h103.8v-120h-103.8ZM691.5,409h29.7v6.4h-29.7v-6.4Z"/>
    <polyline class="cls-3" points="409.1 493.5 395.1 493.5 395.1 323 517.6 323 517.6 493.5 424.8 493.5"/>
    <polyline class="cls-3" points="409.1 493.5 395.1 493.5 395.1 323 517.6 323 517.6 493.5 424.8 493.5"/>
    <rect class="cls-3" x="526.3" y="323" width="122.5" height="170.5"/>
    <line class="cls-3" x1="654.4" y1="380.5" x2="654.4" y2="316.1"/>
    <rect class="cls-3" x="691.5" y="350.5" width="29.6" height="6.4"/>
    <rect class="cls-3" x="691.5" y="409" width="29.7" height="6.4"/>
    <g class="cls-5">
      <g class="cls-16">
        <line class="cls-3" x1="400.6" y1="155" x2="400.6" y2="325.5"/>
        <line class="cls-3" x1="407.3" y1="155" x2="407.3" y2="325.5"/>
        <line class="cls-3" x1="413.9" y1="155" x2="413.9" y2="325.5"/>
        <line class="cls-3" x1="420.5" y1="155" x2="420.5" y2="325.5"/>
        <line class="cls-3" x1="427.1" y1="155" x2="427.1" y2="325.5"/>
        <line class="cls-3" x1="433.7" y1="155" x2="433.7" y2="325.5"/>
        <line class="cls-3" x1="440.3" y1="155" x2="440.3" y2="325.5"/>
        <line class="cls-3" x1="446.9" y1="155" x2="446.9" y2="325.5"/>
        <line class="cls-3" x1="453.5" y1="155" x2="453.5" y2="325.5"/>
        <line class="cls-3" x1="460.2" y1="155" x2="460.2" y2="325.5"/>
        <line class="cls-3" x1="466.8" y1="155" x2="466.8" y2="325.5"/>
        <line class="cls-3" x1="473.4" y1="155" x2="473.4" y2="325.5"/>
        <line class="cls-3" x1="480" y1="155" x2="480" y2="325.5"/>
        <line class="cls-3" x1="486.6" y1="155" x2="486.6" y2="325.5"/>
        <line class="cls-3" x1="493.2" y1="155" x2="493.2" y2="325.5"/>
        <line class="cls-3" x1="499.8" y1="155" x2="499.8" y2="325.5"/>
        <line class="cls-3" x1="506.4" y1="155" x2="506.4" y2="325.5"/>
        <line class="cls-3" x1="513.1" y1="155" x2="513.1" y2="325.5"/>
        <line class="cls-3" x1="400.6" y1="323.2" x2="400.6" y2="493.8"/>
        <line class="cls-3" x1="407.3" y1="323.2" x2="407.3" y2="493.8"/>
        <line class="cls-3" x1="413.9" y1="323.2" x2="413.9" y2="493.8"/>
        <line class="cls-3" x1="420.5" y1="323.2" x2="420.5" y2="493.8"/>
        <line class="cls-3" x1="427.1" y1="323.2" x2="427.1" y2="493.8"/>
        <line class="cls-3" x1="433.7" y1="323.2" x2="433.7" y2="493.8"/>
        <line class="cls-3" x1="440.3" y1="323.2" x2="440.3" y2="493.8"/>
        <line class="cls-3" x1="446.9" y1="323.2" x2="446.9" y2="493.8"/>
        <line class="cls-3" x1="453.5" y1="323.2" x2="453.5" y2="493.8"/>
        <line class="cls-3" x1="460.2" y1="323.2" x2="460.2" y2="493.8"/>
        <line class="cls-3" x1="466.8" y1="323.2" x2="466.8" y2="493.8"/>
        <line class="cls-3" x1="473.4" y1="323.2" x2="473.4" y2="493.8"/>
        <line class="cls-3" x1="480" y1="323.2" x2="480" y2="493.8"/>
        <line class="cls-3" x1="486.6" y1="323.2" x2="486.6" y2="493.8"/>
        <line class="cls-3" x1="493.2" y1="323.2" x2="493.2" y2="493.8"/>
        <line class="cls-3" x1="499.8" y1="323.2" x2="499.8" y2="493.8"/>
        <line class="cls-3" x1="506.4" y1="323.2" x2="506.4" y2="493.8"/>
        <line class="cls-3" x1="513.1" y1="323.2" x2="513.1" y2="493.8"/>
      </g>
    </g>
    <g class="cls-13">
      <g class="cls-16">
        <line class="cls-3" x1="531.6" y1="324" x2="531.6" y2="494.5"/>
        <line class="cls-3" x1="538.2" y1="324" x2="538.2" y2="494.5"/>
        <line class="cls-3" x1="544.8" y1="324" x2="544.8" y2="494.5"/>
        <line class="cls-3" x1="551.4" y1="324" x2="551.4" y2="494.5"/>
        <line class="cls-3" x1="558" y1="324" x2="558" y2="494.5"/>
        <line class="cls-3" x1="564.6" y1="324" x2="564.6" y2="494.5"/>
        <line class="cls-3" x1="571.2" y1="324" x2="571.2" y2="494.5"/>
        <line class="cls-3" x1="577.8" y1="324" x2="577.8" y2="494.5"/>
        <line class="cls-3" x1="584.5" y1="324" x2="584.5" y2="494.5"/>
        <line class="cls-3" x1="591.1" y1="324" x2="591.1" y2="494.5"/>
        <line class="cls-3" x1="597.7" y1="324" x2="597.7" y2="494.5"/>
        <line class="cls-3" x1="604.3" y1="324" x2="604.3" y2="494.5"/>
        <line class="cls-3" x1="610.9" y1="324" x2="610.9" y2="494.5"/>
        <line class="cls-3" x1="617.5" y1="324" x2="617.5" y2="494.5"/>
        <line class="cls-3" x1="624.1" y1="324" x2="624.1" y2="494.5"/>
        <line class="cls-3" x1="630.7" y1="324" x2="630.7" y2="494.5"/>
        <line class="cls-3" x1="637.4" y1="324" x2="637.4" y2="494.5"/>
        <line class="cls-3" x1="644" y1="324" x2="644" y2="494.5"/>
      </g>
    </g>
    <line class="cls-3" x1="513.1" y1="323" x2="513.1" y2="492.7"/>
    <line class="cls-3" x1="506.4" y1="323" x2="506.4" y2="492.7"/>
    <line class="cls-3" x1="499.8" y1="323" x2="499.8" y2="492.7"/>
    <line class="cls-3" x1="493.2" y1="323.2" x2="493.2" y2="492.8"/>
    <line class="cls-3" x1="486.6" y1="323.4" x2="486.6" y2="493.1"/>
    <line class="cls-3" x1="480" y1="323.4" x2="480" y2="493.1"/>
    <line class="cls-3" x1="473.4" y1="323.4" x2="473.4" y2="493.1"/>
    <line class="cls-3" x1="466.8" y1="323" x2="466.8" y2="492.7"/>
    <line class="cls-3" x1="460.2" y1="323" x2="460.2" y2="492.7"/>
    <line class="cls-3" x1="453.6" y1="323.2" x2="453.6" y2="492.8"/>
    <line class="cls-3" x1="446.9" y1="323.4" x2="446.9" y2="493.1"/>
    <line class="cls-3" x1="440.3" y1="323.4" x2="440.3" y2="493.1"/>
    <line class="cls-3" x1="433.7" y1="323.4" x2="433.7" y2="493.1"/>
    <line class="cls-3" x1="427.1" y1="323" x2="427.1" y2="493.1"/>
    <line class="cls-3" x1="420.5" y1="323" x2="420.5" y2="493.1"/>
    <line class="cls-3" x1="413.9" y1="323" x2="413.9" y2="493.1"/>
    <line class="cls-3" x1="407.3" y1="323" x2="407.3" y2="493.1"/>
    <line class="cls-3" x1="400.7" y1="323" x2="400.7" y2="493.1"/>
    <polyline class="cls-3" points="634.7 493.5 648.8 493.5 648.8 323 526.3 323 526.3 493.5 619.1 493.5"/>
    <line class="cls-3" x1="530.8" y1="323" x2="530.8" y2="492.7"/>
    <line class="cls-3" x1="537.4" y1="323" x2="537.4" y2="492.7"/>
    <line class="cls-3" x1="544" y1="323" x2="544" y2="492.7"/>
    <line class="cls-3" x1="550.6" y1="323.2" x2="550.6" y2="492.8"/>
    <line class="cls-3" x1="557.2" y1="323.4" x2="557.2" y2="493.1"/>
    <line class="cls-3" x1="563.8" y1="323.4" x2="563.8" y2="493.1"/>
    <line class="cls-3" x1="570.4" y1="323.4" x2="570.4" y2="493.1"/>
    <line class="cls-3" x1="577" y1="323" x2="577" y2="492.7"/>
    <line class="cls-3" x1="583.7" y1="323" x2="583.7" y2="492.7"/>
    <line class="cls-3" x1="590.3" y1="323.2" x2="590.3" y2="492.8"/>
    <line class="cls-3" x1="596.9" y1="323.4" x2="596.9" y2="493.1"/>
    <line class="cls-3" x1="603.5" y1="323.4" x2="603.5" y2="493.1"/>
    <line class="cls-3" x1="610.1" y1="323.4" x2="610.1" y2="493.1"/>
    <line class="cls-3" x1="616.7" y1="323" x2="616.7" y2="492.8"/>
    <line class="cls-3" x1="623.3" y1="323" x2="623.3" y2="492.8"/>
    <line class="cls-3" x1="630" y1="323" x2="630" y2="492.8"/>
    <line class="cls-3" x1="636.6" y1="323" x2="636.6" y2="493.1"/>
    <line class="cls-3" x1="643.1" y1="323" x2="643.1" y2="493.1"/>
  </g>
  <g id="mirror">
    <circle class="cls-3" cx="495.5" cy="177.4" r="104.8"/>
    <circle class="cls-3" cx="495.5" cy="177.4" r="100.9"/>
  </g>
  <g id="lamp_and_bowl" data-name="lamp and bowl">
    <rect class="cls-3" x="692.1" y="252.3" width="7.7" height="10.6"/>
    <path class="cls-3" d="M716.1,282.7v33.4h-40.3v-33.4c0-9.8,7-18,16.3-19.8h7.7c4.7.9,8.7,3.4,11.7,6.9s4.7,8,4.7,12.9Z"/>
    <rect class="cls-3" x="664.7" y="187" width="61.1" height="65.4"/>
    <path class="cls-3" d="M630.7,309.7v6.4h-31v-6c1.2.2,2.4.2,3.7.2h21.2c2.1,0,4.2-.2,6.2-.7Z"/>
    <path class="cls-3" d="M651.5,282.2v1.3c0,12.8-8.9,23.4-20.8,26.2-2,.5-4,.7-6.2.7h-21.2c-1.2,0-2.5,0-3.7-.2-13.2-1.8-23.3-13-23.3-26.7v-1.3h75Z"/>
  </g>
  <g id="bench">
    <rect class="cls-3" x="69" y="452.5" width="211.3" height="13.8"/>
    <polygon class="cls-3" points="73.3 466.8 80.2 466.8 78.8 474.5 73.3 474.5 73.3 466.8"/>
    <polygon class="cls-3" points="257.2 474.5 92 474.5 94.3 466.8 254.9 466.8 257.2 474.5"/>
    <polygon class="cls-3" points="276 466.8 276 474.5 270.5 474.5 269 466.8 276 466.8"/>
    <g class="cls-16">
      <g id="_Mirror_Repeat_-3" data-name="&amp;lt;Mirror Repeat&amp;gt;">
        <g class="cls-10">
          <polygon class="cls-3" points="80.3 466.4 94 466.4 77.2 523.4 69.4 523.4 80.3 466.4"/>
        </g>
      </g>
      <g id="_Mirror_Repeat_-4" data-name="&amp;lt;Mirror Repeat&amp;gt;">
        <g class="cls-15">
          <polygon class="cls-3" points="269 466.4 255.3 466.4 272.2 523.4 279.9 523.4 269 466.4"/>
        </g>
      </g>
    </g>
    <g id="bench_stems" data-name="bench stems">
      <polygon class="cls-3" points="94.3 466.8 92 474.5 86.9 491.2 77.1 523.1 69.6 523.1 75.6 491.2 78.8 474.5 80.2 466.8 94.3 466.8"/>
      <polygon class="cls-3" points="94.5 466.3 94.3 466.8 80.2 466.8 80.3 466.3 94.5 466.3"/>
      <polygon class="cls-3" points="279.6 523.1 272.1 523.1 269.1 513.3 262.4 491.2 257.2 474.5 254.9 466.8 269 466.8 270.5 474.5 273.6 491.2 277.8 513.3 279.6 523.1"/>
      <polygon class="cls-3" points="269 466.8 254.9 466.8 254.7 466.3 268.9 466.3 269 466.8"/>
    </g>
  </g>
  <g id="books">
    <rect class="cls-3" x="173.8" y="442.6" width="93.4" height="9.9"/>
    <rect class="cls-3" x="178.3" y="433.3" width="84.3" height="9.2"/>
    <rect class="cls-3" x="200.3" y="427.4" width="54.5" height="5.9"/>
  </g>
  <g id="hooks">
    <rect class="cls-3" x="98.8" y="145.3" width="150.1" height="29.2"/>
    <g class="cls-6">
      <g>
        <circle class="cls-3" cx="120.7" cy="157.8" r="5.9"/>
        <circle class="cls-3" cx="156.4" cy="157.8" r="5.9"/>
        <circle class="cls-3" cx="192.1" cy="157.8" r="5.9"/>
        <circle class="cls-3" cx="227.9" cy="157.8" r="5.9"/>
      </g>
    </g>
    <rect class="cls-3" x="119.6" y="156.9" width="2.1" height="12"/>
    <rect class="cls-3" x="155.2" y="156.9" width="2.1" height="12"/>
    <rect class="cls-3" x="191" y="156.9" width="2.1" height="12"/>
    <rect class="cls-3" x="227" y="156.9" width="2.1" height="12"/>
  </g>
  <g id="door">
    <rect class="cls-3" x="814.7" y="64.5" width="239" height="426.7"/>
    <circle class="cls-3" cx="1030.9" cy="296.8" r="9.3"/>
    <rect class="cls-3" x="1023" y="254.4" width="15.7" height="26.8"/>
    <rect class="cls-3" x="1028.2" y="262.5" width="5.4" height="12.3"/>
    <rect class="cls-3" x="866" y="301.2" width="129.4" height="165.1"/>
    <rect class="cls-3" x="866" y="197.7" width="129.4" height="89.8"/>
    <path class="cls-3" d="M930.7,90.3h0c-35.7,0-64.7,29-64.7,64.7v28.9h129.4v-28.9c0-35.7-29-64.7-64.7-64.7Z"/>
    <line class="cls-3" x1="930.7" y1="90.3" x2="930.7" y2="184"/>
    <line class="cls-3" x1="868.5" y1="137.1" x2="993" y2="137.1"/>
    <rect class="cls-3" x="873" y="309.6" width="115.4" height="149.2"/>
    <line class="cls-3" x1="873" y1="309.6" x2="866" y2="301.2"/>
    <line class="cls-3" x1="988.4" y1="309.6" x2="995.5" y2="301.2"/>
    <line class="cls-3" x1="988.4" y1="458.8" x2="995.5" y2="466.3"/>
    <line class="cls-3" x1="873" y1="457.6" x2="866" y2="466.3"/>
    <rect class="cls-3" x="872.6" y="204.6" width="115.4" height="76.6"/>
    <line class="cls-3" x1="872.6" y1="204.6" x2="866" y2="197.7"/>
    <line class="cls-3" x1="988" y1="204.6" x2="995.5" y2="197.7"/>
    <line class="cls-3" x1="872.6" y1="281.2" x2="866" y2="287.5"/>
    <line class="cls-3" x1="988" y1="281.2" x2="995.5" y2="287.5"/>
  </g>
  <g id="Layer_18" data-name="Layer 18">
    <g id="Layer_20" data-name="Layer 20">
      <g>
        <g id="_Mirror_Repeat_-5" data-name="&amp;lt;Mirror Repeat&amp;gt;">
          <g class="cls-8">
            <line class="cls-3" x1="120.7" y1="158.6" x2="95.7" y2="273.9"/>
          </g>
        </g>
        <g id="_Mirror_Repeat_-6" data-name="&amp;lt;Mirror Repeat&amp;gt;">
          <g class="cls-14">
            <line class="cls-3" x1="120.8" y1="158.6" x2="145.8" y2="273.9"/>
          </g>
        </g>
      </g>
    </g>
    <g id="Layer_19" data-name="Layer 19">
      <g>
        <g id="_Mirror_Repeat_-7" data-name="&amp;lt;Mirror Repeat&amp;gt;">
          <g class="cls-11">
            <line class="cls-3" x1="120.7" y1="158.6" x2="95.7" y2="273.9"/>
          </g>
        </g>
        <g id="_Mirror_Repeat_-8" data-name="&amp;lt;Mirror Repeat&amp;gt;">
          <g class="cls-17">
            <line class="cls-3" x1="120.8" y1="158.6" x2="145.8" y2="273.9"/>
          </g>
        </g>
      </g>
      <path class="cls-3" d="M133.1,312.7h-24.9c-9.9,0-18-8-18-18v-20.6h60.8v20.6c0,9.9-8,18-18,18Z"/>
    </g>
  </g>
  <g id="outlet">
    <rect class="cls-3" x="1272.7" y="441.2" width="18.3" height="32.6"/>
    <circle class="cls-3" cx="1281.9" cy="450.9" r="4.5"/>
    <circle class="cls-3" cx="1281.9" cy="464" r="4.5"/>
  </g>
  <g id="doe" class="cls-16">
    <g>
      <ellipse class="cls-2" cx="674.1" cy="197.4" rx="28.4" ry="29.8"/>
      <rect class="cls-2" x="663.4" y="219.6" width="20.6" height="25.3"/>
      <rect class="cls-2" x="632.7" y="239.2" width="83.7" height="20.2"/>
      <rect class="cls-2" x="639.3" y="259.4" width="72.5" height="55.4"/>
      <rect class="cls-2" x="646.3" y="314.9" width="58.5" height="40"/>
      <rect class="cls-2" x="636.9" y="351.6" width="74.9" height="30.4"/>
      <rect class="cls-2" x="619.2" y="239.2" width="13.4" height="141.7"/>
      <rect class="cls-2" x="716.4" y="239.2" width="14.7" height="142.8"/>
      <rect class="cls-2" x="650.2" y="382" width="22.2" height="166.2"/>
      <rect class="cls-2" x="679.2" y="382" width="22.2" height="166.2"/>
      <rect class="cls-2" x="645.9" y="546.6" width="30.7" height="19.4"/>
      <rect class="cls-2" x="675" y="546.6" width="30.7" height="19.4"/>
    </g>
  </g>
  <g id="doe2" class="cls-16">
    <g>
      <ellipse class="cls-2" cx="1346.9" cy="249.4" rx="28.4" ry="29.8"/>
      <rect class="cls-2" x="1336.3" y="271.5" width="20.6" height="25.3"/>
      <rect class="cls-2" x="1305.5" y="291.1" width="83.7" height="20.2"/>
      <rect class="cls-2" x="1312.1" y="311.4" width="72.5" height="55.4"/>
      <rect class="cls-2" x="1319.1" y="366.8" width="58.5" height="40"/>
      <rect class="cls-2" x="1309.8" y="403.5" width="74.9" height="30.4"/>
      <rect class="cls-2" x="1292.1" y="291.1" width="13.4" height="141.7"/>
      <rect class="cls-2" x="1389.2" y="291.1" width="14.7" height="142.8"/>
      <rect class="cls-2" x="1317.2" y="441.4" width="22.2" height="96.8"/>
      <rect class="cls-2" x="1312.9" y="536.6" width="30.7" height="19.4"/>
      <rect class="cls-2" x="1353.7" y="441.4" width="22.2" height="96.8"/>
      <rect class="cls-2" x="1349.4" y="536.6" width="30.7" height="19.4"/>
      <circle class="cls-2" cx="1328.3" cy="430.1" r="14.9"/>
      <circle class="cls-2" cx="1364.6" cy="430.1" r="14.9"/>
    </g>
  </g>
</svg>