<?xml version="1.0" encoding="UTF-8"?>
<svg id="Layer_1" data-name="Layer 1" xmlns="http://www.w3.org/2000/svg" width="1528" height="680" version="1.1" viewBox="0 0 1528 680">
  <defs>
    <style>
      .cls-1 {
        stroke-miterlimit: 10;
      }

      .cls-1, .cls-2 {
        fill: none;
        stroke: #000;
      }

      .cls-2 {
        stroke-width: 2px;
      }
    </style>
  </defs>
  <g id="Floor_line" data-name="Floor line">
    <line class="cls-2" x1="1448.2" y1="491.2" x2="1371.4" y2="491.2"/>
    <line class="cls-2" x1="1528" y1="491.2" x2="1465.9" y2="491.2"/>
    <line class="cls-2" x1="914.9" y1="491.2" x2="291.5" y2="491.2"/>
    <line class="cls-2" x1="76.1" y1="491.2" y2="491.2"/>
    <line class="cls-2" x1="1080.9" y1="491.2" x2="1026.9" y2="491.2"/>
    <polyline class="cls-2" points="932.5 491.2 945.3 491.2 1009.3 491.2"/>
    <line class="cls-2" x1="1301.6" y1="491.2" x2="1097.4" y2="491.2"/>
    <line class="cls-2" x1="1353.8" y1="491.2" x2="1318.1" y2="491.2"/>
  </g>
  <g id="Layer_16" data-name="Layer 16">
    <path class="cls-2" d="M481.3,162s9,18,36,18,36-18,36-18h-72Z"/>
    <path class="cls-2" d="M481.3,144s9,18,36,18,36-18,36-18h-72Z"/>
    <path class="cls-2" d="M481.3,126s9,18,36,18,36-18,36-18h-72Z"/>
    <path class="cls-2" d="M914.9,412.9v78.3H291.5v-198.3h620v117.2c0,1.5,1.2,2.8,2.8,2.8h.7Z"/>
    <rect class="cls-2" x="932.5" y="412.9" width="12.8" height="78.3"/>
    <rect class="cls-2" x="938.7" y="292.9" width="6.6" height="93"/>
    <rect class="cls-2" x="291.5" y="269.1" width="620" height="23.8"/>
    <rect class="cls-2" x="938.7" y="269.1" width="14.4" height="23.8"/>
    <rect class="cls-2" x="302" y="303.1" width="156.2" height="58.2"/>
    <rect class="cls-2" x="302" y="371.5" width="156.2" height="107.9"/>
    <rect class="cls-2" x="468.9" y="371.5" width="156.2" height="107.9"/>
    <rect class="cls-2" x="468.9" y="303.1" width="156.2" height="58.2"/>
    <rect class="cls-2" x="832.2" y="303.1" width="79.2" height="36.9"/>
    <rect class="cls-2" x="832.2" y="350.2" width="79.2" height="36.9"/>
    <path class="cls-2" d="M914.2,412.9h.7v21.2h-82.7v-36.9h79.2v13c0,1.5,1.2,2.8,2.8,2.8Z"/>
    <rect class="cls-2" x="932.5" y="412.9" width=".2" height="21.2"/>
    <rect class="cls-2" x="831.2" y="444.2" width="83.7" height="36.9"/>
    <rect class="cls-2" x="363" y="329.1" width="34.2" height="6.2"/>
    <rect class="cls-2" x="529.9" y="329.1" width="34.2" height="6.2"/>
    <rect class="cls-2" x="529.9" y="382.9" width="34.2" height="6.2"/>
    <rect class="cls-2" x="363" y="382.9" width="34.2" height="6.2"/>
    <rect class="cls-2" x="647.6" y="366.5" width="163.1" height="108.4"/>
    <g>
      <rect class="cls-2" x="675.1" y="71.2" width="221.9" height="143"/>
      <rect class="cls-2" x="682.9" y="78" width="206.3" height="129.3"/>
      <rect class="cls-2" x="782.7" y="78" width="6.7" height="129.3"/>
    </g>
    <line class="cls-2" x1="310.3" x2="310.3" y2="49.6"/>
    <circle class="cls-2" cx="310.3" cy="78" r="28.4"/>
    <line class="cls-2" x1="467.6" x2="467.6" y2="49.6"/>
    <circle class="cls-2" cx="467.6" cy="78" r="28.4"/>
    <line class="cls-2" x1="390.3" x2="390.3" y2="99.1"/>
    <circle class="cls-2" cx="390.3" cy="127.5" r="28.4"/>
    <g>
      <path class="cls-2" d="M352.4,268.8h-24.5v-17.6c0-4.4,3.6-8,8-8h8.4c4.4,0,8,3.6,8,8v17.6h0Z"/>
      <path class="cls-2" d="M336.3,242.9s-2.5-42.6,1.2-52.4c2.7-7,20-6.4,26.7-6.4s12,3.5,12.3,12.5c.5,14.4.5,15.7.5,15.7l-7.1-.3s1.2-18.8-5.7-19.9c-7.4-1.1-19.2-1.3-19.2,7.7s-1.4,43.1-1.4,43.1h-7.3Z"/>
      <path class="cls-2" d="M316.7,254.5v-8.7c0-1.4-1.2-2.6-2.6-2.6h0c-1.4,0-2.6,1.2-2.6,2.6v14.7h16.3v-6h-11.1Z"/>
    </g>
    <rect class="cls-2" x="463.3" y="180" width="162" height="18"/>
    <g>
      <path class="cls-2" d="M609.3,139.1l-4.1,41.1h-24.7l-5.4-41.1h.1c.9,1.7,8.2,3.1,17,3.1s16.1-1.3,17-3.1h.1Z"/>
      <path class="cls-2" d="M609.3,138.7c0,.1,0,.2-.1.4-.9,1.7-8.2,3.1-17,3.1s-16.1-1.3-17-3.1c0-.1-.1-.2-.1-.4,0-1.9,7.7-3.4,17.1-3.4s17.1,1.5,17.1,3.4Z"/>
      <line class="cls-2" x1="592.2" y1="125.3" x2="592.2" y2="142.1"/>
      <path class="cls-2" d="M617.4,94.5c0,17-10.8,30.8-24,30.8s-.8,0-1.2,0c-12.7-.8-22.8-14.3-22.8-30.8s10.7-30.8,24-30.8,24,13.8,24,30.8Z"/>
    </g>
    <g>
      <rect class="cls-2" x="1080.9" y="374.6" width="16.5" height="156.3"/>
      <rect class="cls-2" x="1301.6" y="374.6" width="16.5" height="156.3"/>
      <path class="cls-2" d="M1342.7,374.6h-301.2c-2.8,0-5.1-2.3-5.1-5.1v-26.2c0-2.8,2.3-5.1,5.1-5.1h301.2c2.8,0,5.1,2.3,5.1,5.1v26.2c0,2.8-2.3,5.1-5.1,5.1Z"/>
      <g>
        <path class="cls-2" d="M1032.9,388.6v21.5c0,1.5-1.2,2.8-2.8,2.8h-116c-1.5,0-2.8-1.2-2.8-2.8v-157c0-3.2,2.6-5.8,5.8-5.8h15.7c3.2,0,5.8,2.6,5.8,5.8v132.8h91.5c1.5,0,2.8,1.2,2.8,2.8Z"/>
        <rect class="cls-2" x="914.9" y="412.9" width="17.6" height="101.9"/>
        <rect class="cls-2" x="1009.3" y="412.9" width="17.6" height="101.9"/>
      </g>
      <g>
        <path class="cls-2" d="M1469.3,258.1v157c0,1.5-1.2,2.8-2.8,2.8h-116c-1.5,0-2.8-1.2-2.8-2.8v-21.5c0-1.5,1.2-2.8,2.8-2.8h91.5v-132.8c0-3.2,2.6-5.8,5.8-5.8h15.7c3.2,0,5.8,2.6,5.8,5.8Z"/>
        <rect class="cls-2" x="1448.2" y="417.9" width="17.6" height="101.9"/>
        <rect class="cls-2" x="1353.8" y="417.9" width="17.6" height="101.9"/>
      </g>
    </g>
    <g id="fridge">
      <path class="cls-2" d="M291.5,149.9v351.5c0,11.5-9.3,20.8-20.8,20.8H96.9c-11.5,0-20.8-9.3-20.8-20.8V149.9c0-11.5,9.3-20.8,20.8-20.8h173.8c11.5,0,20.8,9.3,20.8,20.8Z"/>
      <line class="cls-2" x1="76.1" y1="160.7" x2="291.4" y2="160.7"/>
      <line class="cls-2" x1="76.1" y1="293.3" x2="291.4" y2="293.3"/>
      <line class="cls-2" x1="76.1" y1="302.6" x2="291.4" y2="302.6"/>
      <rect class="cls-2" x="90.1" y="240.9" width="7.8" height="35.3"/>
      <rect class="cls-2" x="90.1" y="320.5" width="7.8" height="35.3"/>
    </g>
    <rect class="cls-2" x="635.4" y="303.1" width="187.4" height="187.4"/>
    <line class="cls-2" x1="635.4" y1="329.1" x2="822.9" y2="329.1"/>
    <circle class="cls-2" cx="649" cy="315.9" r="5"/>
    <circle class="cls-2" cx="679" cy="315.9" r="5"/>
    <circle class="cls-2" cx="709.1" cy="315.9" r="5"/>
    <circle class="cls-2" cx="739.1" cy="315.9" r="5"/>
    <circle class="cls-2" cx="882.5" cy="321.5" r="5"/>
    <circle class="cls-2" cx="882.5" cy="368.6" r="5"/>
    <circle class="cls-2" cx="881.5" cy="415.6" r="5"/>
    <circle class="cls-2" cx="881.5" cy="462.6" r="5"/>
    <rect class="cls-2" x="757.5" y="311.7" width="57.1" height="8.3"/>
    <rect class="cls-2" x="661.7" y="348.5" width="140.1" height="8.3"/>
    <g>
      <path class="cls-2" d="M1278.6,173.9v122.8"/>
      <path class="cls-2" d="M1269.9,62.1v112.8c0,0-.2,0-.2,0-.9.1-1.9.3-2.8.4,0,0-.2,0-.3,0-.9.1-1.9.3-2.8.5-.2,0-.4,0-.6.1-.8.1-1.6.3-2.4.5-.2,0-.3,0-.5.1-.7.1-1.4.3-2.1.5-.2,0-.5.1-.7.2-.3,0-.6.1-.9.2-.6.1-1.3.3-1.9.5-1.9.5-3.9,1.1-5.8,1.6-.5.1-1,.3-1.4.5-.8.2-1.5.5-2.3.8v7.8h-6.2v-5.6c-14.1,5.5-27.4,13.2-39.1,23-.8.7-1.6,1.3-2.4,2-1.5,1.3-2.9,2.6-4.3,3.9-.5.5-1,.9-1.5,1.4-.9.9-1.8,1.8-2.7,2.7-.6.6-1.2,1.2-1.8,1.9-.4.5-.9.9-1.3,1.4-.4.5-.8.9-1.3,1.4,0,0-.2.2-.2.3-.6.7-1.2,1.3-1.8,2,0,0-.1.1-.2.2-.6.6-1.1,1.3-1.6,1.9-.2.2-.3.4-.5.6-.6.7-1.1,1.3-1.6,2-1.3,1.6-2.5,3.2-3.7,4.9-.6.8-1.2,1.6-1.8,2.5-.6.8-1.2,1.7-1.7,2.5-.6.8-1.1,1.7-1.7,2.6-.6.9-1.1,1.7-1.6,2.6-.5.9-1,1.8-1.5,2.6-.5.9-1,1.8-1.5,2.7-.5.9-.9,1.7-1.4,2.6,0,0,0,.1,0,.2-.4.8-.9,1.7-1.3,2.5,0,0,0,.1,0,.2-.4.9-.9,1.8-1.3,2.6-.4.9-.9,1.8-1.3,2.8-.4.8-.7,1.7-1.1,2.5-.5,1.1-.9,2.2-1.3,3.3-.4.9-.7,1.8-1,2.7-.3.9-.7,1.8-1,2.7,0,0,0,.1,0,.2-.3.9-.6,1.7-.9,2.6,0,.1,0,.2-.1.3-.2.7-.4,1.3-.6,2-.2.6-.4,1.2-.5,1.8-.2.8-.4,1.5-.7,2.2-.8,2.9-1.5,5.7-2.1,8.6h-46.9V62.1h166.4Z"/>
      <path class="cls-2" d="M1269.9,174.9v113h-119.5c0-.3.1-.6.2-.9.1-.5.2-1,.3-1.5.1-.5.2-.9.3-1.4.4-1.6.8-3.2,1.3-4.8,0-.3.2-.6.3-.9.1-.4.2-.9.4-1.3.2-.6.3-1.2.5-1.8.2-.7.4-1.3.6-2,0-.1,0-.2.1-.3.3-.9.6-1.7.9-2.6,0,0,0-.1,0-.2.3-.9.7-1.8,1-2.7.3-.9.7-1.8,1-2.7.4-1.1.9-2.2,1.3-3.3.3-.8.7-1.7,1.1-2.5.4-.9.8-1.9,1.3-2.8.4-.8.7-1.6,1.1-2.3,0-.1,0-.2.2-.3,0,0,0-.1,0-.2.4-.9.8-1.7,1.3-2.5,0,0,0-.1,0-.2.5-.9.9-1.7,1.4-2.6.5-.9,1-1.8,1.5-2.7s1-1.8,1.5-2.6c.5-.9,1.1-1.7,1.6-2.6.5-.9,1.1-1.7,1.7-2.6.6-.9,1.1-1.7,1.7-2.5.6-.8,1.2-1.7,1.8-2.5,1.2-1.6,2.4-3.3,3.7-4.9.5-.7,1.1-1.4,1.6-2,.2-.2.3-.4.5-.6.5-.7,1.1-1.3,1.6-1.9,0,0,.1-.1.2-.2.6-.7,1.2-1.4,1.8-2,0-.1.2-.2.2-.3.4-.5.8-.9,1.3-1.4.4-.5.9-.9,1.3-1.4,0,0,0,0,0,0,.4-.4.8-.9,1.2-1.3.2-.2.3-.3.5-.5,0,0,.1-.1.2-.2.5-.5,1-1,1.5-1.5.3-.3.7-.6,1-1,.5-.5,1-.9,1.5-1.4,1.4-1.4,2.9-2.6,4.3-3.9.8-.7,1.6-1.4,2.4-2,11.7-9.7,25-17.5,39.1-23v5.6h6.2v-7.8c.8-.3,1.5-.5,2.3-.8.5-.2,1-.3,1.4-.5,1-.3,2.1-.6,3.1-.9.9-.3,1.8-.5,2.7-.7.6-.2,1.3-.3,1.9-.5.3,0,.6-.2.9-.2.2,0,.5-.1.7-.2.4-.1.9-.2,1.3-.3.2,0,.5-.1.8-.2.2,0,.3,0,.5-.1.8-.2,1.6-.4,2.4-.5.2,0,.4,0,.6-.1.6-.1,1.3-.2,1.9-.4.3,0,.6-.1.9-.2,0,0,.2,0,.3,0,.7-.1,1.3-.2,2-.3,0,0,.2,0,.3,0,.2,0,.3,0,.5,0,0,0,.1,0,.2,0Z"/>
      <rect class="cls-2" x="1103.5" y="62.1" width="166.4" height="225.8"/>
    </g>
    <path class="cls-2" d="M1139.6,149.7v36.5h-6.2v-36.9c1.1.5,2.3.8,3.6.8s1.8-.1,2.6-.4Z"/>
    <path class="cls-2" d="M1151.9,138.6c0,.4,0,.7,0,1.1,0,4.6-3.7,8.3-8.3,8.3s-.7,0-1,0c-.9.8-1.9,1.5-3.1,1.9-.8.3-1.7.4-2.6.4s-2.5-.3-3.6-.8c-1.1-.5-2.1-1.3-2.8-2.3-.6.1-1.2.2-1.8.2-4.6,0-8.3-3.7-8.3-8.3s.1-1.5.3-2.2c-2.3-1.5-3.8-4-3.8-7s1.7-5.8,4.3-7.2c0-.5-.2-1.1-.2-1.6,0-4.6,3.7-8.3,8.3-8.3s1,0,1.4.1c1.5-2.2,4-3.6,6.8-3.6s5.3,1.4,6.8,3.6c.5,0,1-.1,1.5-.1,4.6,0,8.3,3.7,8.3,8.3s-.4,2.9-1.1,4.1c1.8,1.5,3,3.8,3,6.4,0,3.1-1.7,5.8-4.2,7.2Z"/>
    <g>
      <path class="cls-2" d="M1192.4,166.6v36.5h-6.2v-36.9c1.1.5,2.3.8,3.6.8s1.8-.1,2.6-.4Z"/>
      <path class="cls-2" d="M1204.7,155.4c0,.4,0,.7,0,1.1,0,4.6-3.7,8.3-8.3,8.3s-.7,0-1,0c-.9.8-1.9,1.5-3.1,1.9-.8.3-1.7.4-2.6.4s-2.5-.3-3.6-.8c-1.1-.5-2.1-1.3-2.8-2.3-.6.1-1.2.2-1.8.2-4.6,0-8.3-3.7-8.3-8.3s.1-1.5.3-2.2c-2.3-1.5-3.8-4-3.8-7s1.7-5.9,4.3-7.2c0-.5-.2-1.1-.2-1.6,0-4.6,3.7-8.3,8.3-8.3s1,0,1.5.1c1.5-2.2,4-3.6,6.8-3.6s5.3,1.4,6.8,3.6c.5,0,1-.1,1.5-.1,4.6,0,8.3,3.7,8.3,8.3s-.4,2.9-1.1,4.1c1.8,1.5,3,3.8,3,6.4,0,3.1-1.7,5.8-4.2,7.2Z"/>
    </g>
    <g>
      <path class="cls-2" d="M1245.1,152.1v36.5h-6.2v-36.9c1.1.5,2.3.8,3.6.8s1.8-.1,2.6-.4Z"/>
      <path class="cls-2" d="M1257.4,141c0,.4,0,.7,0,1.1,0,4.6-3.7,8.3-8.3,8.3s-.7,0-1,0c-.9.8-1.9,1.5-3.1,1.9-.8.3-1.7.4-2.6.4s-2.5-.3-3.6-.8c-1.1-.5-2.1-1.3-2.8-2.3-.6.1-1.2.2-1.8.2-4.6,0-8.3-3.7-8.3-8.3s.1-1.5.3-2.2c-2.3-1.5-3.8-4-3.8-7s1.7-5.8,4.3-7.2c-.1-.5-.2-1.1-.2-1.6,0-4.6,3.7-8.3,8.3-8.3s1,0,1.5.1c1.5-2.2,4-3.6,6.8-3.6s5.3,1.4,6.8,3.6c.5,0,1-.1,1.5-.1,4.6,0,8.3,3.7,8.3,8.3s-.4,2.9-1.1,4.1c1.8,1.5,3,3.8,3,6.4,0,3.1-1.7,5.8-4.2,7.2Z"/>
    </g>
    <path class="cls-2" d="M1094.8,53.3v243.3h183.8V53.3h-183.8ZM1269.9,287.9h-166.4V62.1h166.4v225.8Z"/>
    <path class="cls-2" d="M1199.8,206.1c-.8.7-1.6,1.3-2.4,2-23.6,20.4-40.4,49-47,79.8h-46.9v-108c10-.8,20-.5,30,.7v5.7h6.2v-4.8c11.8,2,23.4,5.4,34.5,10.2,4.1,1.8,8.2,3.8,12.1,5.9v5.6h6.2v-2c2.5,1.5,5,3.2,7.4,4.9Z"/>
    <path class="cls-2" d="M1269.9,174.9v113h-119.5c0-.3.1-.6.2-.9.1-.5.2-1,.3-1.5.1-.5.2-.9.3-1.4.4-1.6.8-3.2,1.3-4.8,0-.3.2-.6.3-.9.1-.4.2-.9.4-1.3.2-.6.3-1.2.5-1.8.2-.7.4-1.3.6-2,0-.1,0-.2.1-.3.3-.9.6-1.7.9-2.6,0,0,0-.1,0-.2.3-.9.7-1.8,1-2.7.3-.9.7-1.8,1-2.7.4-1.1.9-2.2,1.3-3.3.3-.8.7-1.7,1.1-2.5.4-.9.8-1.9,1.3-2.8.4-.8.7-1.6,1.1-2.3,0-.1,0-.2.2-.3,0,0,0-.1,0-.2.4-.9.8-1.7,1.3-2.5,0,0,0-.1,0-.2.5-.9.9-1.7,1.4-2.6.5-.9,1-1.8,1.5-2.7s1-1.8,1.5-2.6c.5-.9,1.1-1.7,1.6-2.6.5-.9,1.1-1.7,1.7-2.6.6-.9,1.1-1.7,1.7-2.5.6-.8,1.2-1.7,1.8-2.5,1.2-1.6,2.4-3.3,3.7-4.9.5-.7,1.1-1.4,1.6-2,.2-.2.3-.4.5-.6.5-.7,1.1-1.3,1.6-1.9,0,0,.1-.1.2-.2.6-.7,1.2-1.4,1.8-2,0-.1.2-.2.2-.3.4-.5.8-.9,1.3-1.4.4-.5.9-.9,1.3-1.4,0,0,0,0,0,0,.4-.4.8-.9,1.2-1.3.2-.2.3-.3.5-.5,0,0,.1-.1.2-.2.5-.5,1-1,1.5-1.5.3-.3.7-.6,1-1,.5-.5,1-.9,1.5-1.4,1.4-1.4,2.9-2.6,4.3-3.9.8-.7,1.6-1.4,2.4-2,11.7-9.7,25-17.5,39.1-23v5.6h6.2v-7.8c.8-.3,1.5-.5,2.3-.8.5-.2,1-.3,1.4-.5,1-.3,2.1-.6,3.1-.9.9-.3,1.8-.5,2.7-.7.6-.2,1.3-.3,1.9-.5.3,0,.6-.2.9-.2.2,0,.5-.1.7-.2.4-.1.9-.2,1.3-.3.2,0,.5-.1.8-.2.2,0,.3,0,.5-.1.8-.2,1.6-.4,2.4-.5.2,0,.4,0,.6-.1.6-.1,1.3-.2,1.9-.4.3,0,.6-.1.9-.2,0,0,.2,0,.3,0,.7-.1,1.3-.2,2-.3,0,0,.2,0,.3,0,.2,0,.3,0,.5,0,0,0,.1,0,.2,0Z"/>
    <rect class="cls-1" x="1104.5" y="63" width="164.4" height="224.1"/>
  </g>
</svg>