<?xml version="1.0" encoding="UTF-8"?>
<svg id="Layer_1" data-name="Layer 1" xmlns="http://www.w3.org/2000/svg" width="750" height="1264" version="1.1" viewBox="0 0 750 1264">
  <defs>
    <style>
      .cls-1 {
        fill: none;
        stroke: #000;
        stroke-width: 2px;
      }
    </style>
  </defs>
  <g id="Layer_1-2" data-name="Layer 1">
    <line class="cls-1" x1="750" y1="880" x2="296.8" y2="880"/>
    <line class="cls-1" x1="59" y1="880" y2="880"/>
  </g>
  <g id="Layer_2" data-name="Layer 2">
    <g>
      <rect class="cls-1" x="296.8" y="660.1" width="382" height="218.9"/>
      <rect class="cls-1" x="296.8" y="633.8" width="394.2" height="26.2"/>
      <rect class="cls-1" x="308.5" y="671.3" width="172.4" height="64.3"/>
      <rect class="cls-1" x="308.5" y="746.8" width="172.4" height="119.1"/>
      <rect class="cls-1" x="492.7" y="746.8" width="172.4" height="119.1"/>
      <rect class="cls-1" x="492.7" y="671.3" width="172.4" height="64.3"/>
      <rect class="cls-1" x="375.8" y="700" width="37.8" height="6.8"/>
      <rect class="cls-1" x="560.1" y="700" width="37.8" height="6.8"/>
      <rect class="cls-1" x="560.1" y="759.4" width="37.8" height="6.8"/>
      <rect class="cls-1" x="375.8" y="759.4" width="37.8" height="6.8"/>
      <g>
        <path class="cls-1" d="M364,633.5h-27.1v-19.4c0-4.9,4-8.9,8.9-8.9h9.3c4.9,0,8.9,4,8.9,8.9v19.4h0Z"/>
        <path class="cls-1" d="M346.4,604.9s-2.8-47,1.4-57.9c2.9-7.7,22.1-7,29.5-7s13.2,3.8,13.6,13.8c.5,15.9.5,17.3.5,17.3l-7.8-.3s1.4-20.8-6.3-21.9c-8.1-1.2-21.2-1.4-21.2,8.5s-1.5,47.6-1.5,47.6h-8.1Z"/>
        <path class="cls-1" d="M324.7,617.7v-9.6c0-1.6-1.3-2.9-2.9-2.9h0c-1.6,0-2.9,1.3-2.9,2.9v16.2h18v-6.6h-12.3Z"/>
      </g>
      <g id="fridge">
        <path class="cls-1" d="M296.8,502.2v388c0,12.7-10.3,23-23,23H82c-12.7,0-23-10.3-23-23v-388c0-12.7,10.3-23,23-23h191.8c12.7,0,23,10.3,23,23Z"/>
        <line class="cls-1" x1="59" y1="514.1" x2="296.8" y2="514.1"/>
        <line class="cls-1" x1="59" y1="660.6" x2="296.8" y2="660.6"/>
        <line class="cls-1" x1="59" y1="670.8" x2="296.8" y2="670.8"/>
        <rect class="cls-1" x="74.6" y="602.6" width="8.6" height="39"/>
        <rect class="cls-1" x="74.6" y="690.6" width="8.6" height="39"/>
      </g>
    </g>
    <line class="cls-1" x1="196" y1=".4" x2="196" y2="191"/>
    <line class="cls-1" x1="397.2" y1=".4" x2="397.2" y2="191"/>
    <circle class="cls-1" cx="196" cy="227.4" r="36.4"/>
    <circle class="cls-1" cx="397.6" cy="227.4" r="36.4"/>
    <line class="cls-1" x1="298.5" y1=".4" x2="298.5" y2="254.3"/>
    <circle class="cls-1" cx="298.5" cy="290.8" r="36.4"/>
    <path class="cls-1" d="M448.2,426.7s13.3,26.6,53.3,26.6,53.3-26.6,53.3-26.6h-106.6Z"/>
    <path class="cls-1" d="M448.2,400.1s13.3,26.6,53.3,26.6,53.3-26.6,53.3-26.6h-106.6Z"/>
    <path class="cls-1" d="M448.2,373.4s13.3,26.6,53.3,26.6,53.3-26.6,53.3-26.6h-106.6Z"/>
    <rect class="cls-1" x="421.6" y="453.4" width="239.8" height="26.6"/>
    <g>
      <path class="cls-1" d="M637.7,392.8l-6.1,60.8h-36.6l-8-60.9h.2c1.4,2.5,12.2,4.5,25.2,4.5,12.9,0,24.5-2.1,25.4-4.5Z"/>
      <path class="cls-1" d="M637.7,392.8c-.9,2.4-12.5,4.5-25.4,4.5v-10.1c11.1-.3,24.2,2.2,25.4,5.1,0,.2,0,.4,0,.6Z"/>
      <path class="cls-1" d="M612.3,387.1v10.1c-13.1,0-23.8-2-25.2-4.5-.1-.2-.2-.4-.2-.6,0-2.8,11.4-4.7,25.4-5.1Z"/>
      <line class="cls-1" x1="612.3" y1="387.1" x2="612.3" y2="372"/>
      <ellipse class="cls-1" cx="614.1" cy="326.8" rx="35.5" ry="45.7"/>
    </g>
  </g>
</svg>