<?xml version="1.0" encoding="UTF-8"?>
<svg id="Layer_1" data-name="Layer 1" xmlns="http://www.w3.org/2000/svg" width="750" height="1264" version="1.1" xmlns:xlink="http://www.w3.org/1999/xlink" viewBox="0 0 750 1264">
  <defs>
    <style>
      .cls-1 {
        fill: #eac5c5;
      }

      .cls-1, .cls-2, .cls-3 {
        stroke-width: 0px;
      }

      .cls-2, .cls-4 {
        fill: none;
      }

      .cls-4 {
        stroke: #000;
        stroke-width: 2px;
      }

      .cls-5 {
        clip-path: url(#clippath-1);
      }

      .cls-6 {
        clip-path: url(#clippath);
      }

      .cls-3 {
        fill: #fff;
      }

      .cls-7 {
        display: none;
      }
    </style>
    <clipPath id="clippath">
      <polygon class="cls-2" points="589.9 372.1 589.9 372.1 644.5 372.1 644.5 438.2 589.9 438.2 589.9 372.1"/>
    </clipPath>
    <clipPath id="clippath-1">
      <polygon class="cls-2" points="168.4 372.1 168.4 372.1 113.8 372.1 113.8 438.2 168.4 438.2 168.4 372.1"/>
    </clipPath>
  </defs>
  <g id="Layer_2" data-name="Layer 2" class="cls-7">
    <rect class="cls-3" width="750" height="1264"/>
  </g>
  <g id="Layer_2-2" data-name="Layer 2" class="cls-7">
    <rect class="cls-1" width="750" height="1264"/>
  </g>
  <g id="Layer_1-2" data-name="Layer 1-2">
    <polyline class="cls-4" points="671 880 672.1 880 750 880"/>
    <polyline class="cls-4" points="0 880 77.3 880 78.7 880"/>
    <path class="cls-4" d="M613.7,859v55.8H135.9v-55.6h233.2c1.3,0,2.4-.5,3.2-1.2.1,0,.2-.2.3-.2.8-.7,1.3-1.7,1.5-2.8.4,2.4,2.5,4.2,4.9,4.2h234.6Z"/>
    <path class="cls-4" d="M379.2,859h-.1c-2.4,0-4.5-1.8-4.9-4.2,0-.2,0-.5,0-.8,0,2.7,2.2,5,5,5Z"/>
  </g>
  <rect class="cls-4" x="94.2" y="921.3" width="18.8" height="19.5"/>
  <rect class="cls-4" x="634.4" y="921.3" width="18.8" height="19.5"/>
  <path class="cls-4" d="M643,684.8v56.5h-6.4c-12,0-21.7,9.7-21.7,21.6v51.7h-235.9c-2.7,0-5,2.2-5,5,0-2.7-2.2-5-5-5h-234.6v-51.7c0-11.6-9.1-21-20.5-21.6-.3,0-.7,0-1,0h-5.5v-56.5c0-24.2,19.6-43.8,43.8-43.8h447.8c24.2,0,43.8,19.6,43.8,43.8h.1Z"/>
  <path class="cls-4" d="M614.9,814.5v44.6h-235.9c-2.4,0-4.5-1.8-4.9-4.2,0-.2,0-.5,0-.8v-34.6c0-2.7,2.2-5,5-5h235.9Z"/>
  <path class="cls-4" d="M374.1,819.7v34.5c0,1.3-.5,2.6-1.4,3.5,0,0-.2.2-.3.2-.9.8-2,1.2-3.2,1.2h-234.6v-44.4h234.6c2.7,0,5,2.2,5,5Z"/>
  <path class="cls-2" d="M77.3,740v176.1h58.4v-176.1h-58.4ZM134.6,914.8h-55.9v-151.9c0-12,9.7-21.6,21.7-21.6h12.6c.3,0,.7,0,1,0,11.5.5,20.7,10,20.7,21.6v151.9Z"/>
  <path class="cls-4" d="M134.5,814.7v44.4h.1v55.6h-55.9v-151.9c0-12,9.7-21.6,21.7-21.6h12.6c.3,0,.7,0,1,0,11.5.6,20.5,10,20.5,21.6v51.7h.1c0,.1-.1.1-.1.1Z"/>
  <path class="cls-4" d="M134.6,762.9v51.7h-.1v-51.7c0-11.6-9.1-21-20.5-21.6,11.5.5,20.7,10,20.7,21.6Z"/>
  <rect class="cls-4" x="134.5" y="814.7" width=".1" height="44.4"/>
  <path class="cls-2" d="M613.7,740v176.1h58.4v-176.1h-58.4ZM671,914.8h-55.9v-151.9c0-12,9.7-21.6,21.6-21.6h12.6c12,0,21.6,9.7,21.6,21.6v151.9Z"/>
  <path class="cls-4" d="M671,762.9v151.9h-55.9v-151.9c0-12,9.7-21.6,21.6-21.6h12.6c12,0,21.6,9.7,21.6,21.6Z"/>
  <line class="cls-4" x1="374.2" y1="641" x2="374.2" y2="816.6"/>
  <path class="cls-4" d="M372.3,857.9c-.9.8-2,1.2-3.2,1.2h-233.2c0-.1,233.4-.1,233.4-.1,1.2,0,2.3-.4,3.1-1.1Z"/>
  <rect class="cls-4" x="135.9" y="914.8" width="477.8" height=".1"/>
  <rect class="cls-4" x="79" y="914.8" width="591.6" height="6.5"/>
  <g id="shelf">
    <rect class="cls-4" x="224.1" y="415.9" width="301.8" height="19.6"/>
    <rect class="cls-4" x="224.1" y="479" width="301.8" height="19.6"/>
    <rect class="cls-4" x="430.9" y="447" width="69.3" height="31.9"/>
    <ellipse class="cls-4" cx="272.9" cy="469.3" rx="16.4" ry="9.7"/>
    <ellipse class="cls-4" cx="272.9" cy="453.3" rx="11.9" ry="6.2"/>
    <rect class="cls-4" x="309.2" y="447" width="26.4" height="31.9"/>
    <rect class="cls-4" x="246.6" y="544.4" width="92.7" height="7"/>
    <rect class="cls-4" x="252.6" y="538.4" width="78.4" height="6"/>
    <rect class="cls-4" x="278.7" y="527.6" width="36.8" height="10.8"/>
    <rect class="cls-4" x="399" y="515.3" width="63.8" height="23.1"/>
    <rect class="cls-4" x="407.2" y="538.4" width="47.2" height="13"/>
  </g>
  <path class="cls-4" d="M261.5,365.8h0c-9.5,0-17.2,7.7-17.2,17.2v32.9h34.4v-32.9c0-9.5-7.7-17.2-17.2-17.2h0Z"/>
  <path class="cls-4" d="M332.9,415.2h-14.9c-13,0-23.7-10.5-23.7-23.7v-2.8h62.1v2.8c0,13-10.5,23.7-23.7,23.7h.1Z"/>
  <rect class="cls-4" x="422.9" y="408.4" width="93.2" height="6.8"/>
  <rect class="cls-4" x="437" y="401.9" width="67.2" height="6.3"/>
  <rect class="cls-4" x="374.6" y="393.2" width="21.9" height="21.9"/>
  <line class="cls-4" x1="385.5" y1="388.7" x2="385.5" y2="399.8"/>
  <circle class="cls-4" cx="261.5" cy="384.3" r="11.7"/>
  <line class="cls-4" x1="261.5" y1="384.3" x2="261.5" y2="377.1"/>
  <line class="cls-4" x1="261.3" y1="383.7" x2="264.9" y2="388.1"/>
  <path class="cls-4" d="M375,265.5h0c-83.3,0-150.9,67.6-150.9,150.9v135.1h301.8v-135.1c0-83.3-67.6-150.9-150.9-150.9Z"/>
  <g>
    <g id="_Mirror_Repeat_" data-name="&amp;lt;Mirror Repeat&amp;gt;">
      <g class="cls-6">
        <g>
          <path class="cls-2" d="M629.2,412.6v25.6h-25.6v-25.6h9.6v12.4c0,.8.3,1.5.8,2s1.2.8,2,.8c1.6,0,2.8-1.3,2.8-2.9v-12.4h10.4Z"/>
          <path class="cls-4" d="M628.2,425.4c0,6.5-5.3,11.8-11.8,11.8s-11.8-5.3-11.8-11.8,3.2-9.3,7.6-11c.3-.1.7-.2,1-.3v10.9c0,.8.3,1.5.8,2s1.2.8,2,.8c1.6,0,2.8-1.3,2.8-2.9v-11.1c.3,0,.7.2,1,.3,4.8,1.5,8.3,6,8.3,11.3h.1Z"/>
          <path class="cls-2" d="M619.9,399.7v29.1h-7.7v-29.2c.3,0,.7.1,1,.2v25.2c0,.8.3,1.5.8,2s1.2.8,2,.8c1.6,0,2.8-1.3,2.8-2.9v-25.1c.3,0,.7,0,1-.1h.1Z"/>
          <path class="cls-4" d="M618.9,399.8v25.1c0,1.6-1.3,2.9-2.8,2.9s-1.5-.3-2-.8-.8-1.2-.8-2v-25.2c1,.1,2.1.2,3.2.2s1.7,0,2.5-.1h-.1Z"/>
          <path class="cls-2" d="M589.9,372.2v28.7h53.1v-28.7h-53.1ZM642,374.4c0,12.9-9.6,23.6-22,25.3-.3,0-.7,0-1,.1-.8,0-1.7.1-2.5.1s-2.2,0-3.2-.2c-.3,0-.7,0-1-.2-12.1-2-21.3-12.5-21.3-25.2v-1.2h51.1v1.2h0Z"/>
          <path class="cls-4" d="M642,373.2v1.2c0,12.9-9.6,23.6-22,25.3-.3,0-.7,0-1,.1-.8,0-1.7.1-2.5.1s-2.2,0-3.2-.2c-.3,0-.7,0-1-.2-12.1-2-21.3-12.5-21.3-25.2v-1.2h51.1,0Z"/>
        </g>
      </g>
    </g>
    <g id="_Mirror_Repeat_-2" data-name="&amp;lt;Mirror Repeat&amp;gt;">
      <g class="cls-5">
        <g>
          <path class="cls-2" d="M129.1,412.6v25.6h25.6v-25.6h-9.6v12.4c0,.8-.3,1.5-.8,2s-1.2.8-2,.8c-1.6,0-2.8-1.3-2.8-2.9v-12.4h-10.4Z"/>
          <path class="cls-4" d="M130.1,425.4c0,6.5,5.3,11.8,11.8,11.8s11.8-5.3,11.8-11.8-3.2-9.3-7.6-11c-.3-.1-.7-.2-1-.3v10.9c0,.8-.3,1.5-.8,2s-1.2.8-2,.8c-1.6,0-2.8-1.3-2.8-2.9v-11.1c-.3,0-.7.2-1,.3-4.8,1.5-8.3,6-8.3,11.3h-.1Z"/>
          <path class="cls-2" d="M138.4,399.7v29.1h7.7v-29.2c-.3,0-.7.1-1,.2v25.2c0,.8-.3,1.5-.8,2s-1.2.8-2,.8c-1.6,0-2.8-1.3-2.8-2.9v-25.1c-.3,0-.7,0-1-.1h-.1Z"/>
          <path class="cls-4" d="M139.4,399.8v25.1c0,1.6,1.3,2.9,2.8,2.9s1.5-.3,2-.8.8-1.2.8-2v-25.2c-1,.1-2.1.2-3.2.2s-1.7,0-2.5-.1h.1Z"/>
          <path class="cls-2" d="M168.4,372.2v28.7h-53.1v-28.7h53.1ZM116.3,374.4c0,12.9,9.6,23.6,22,25.3.3,0,.7,0,1,.1.8,0,1.7.1,2.5.1s2.2,0,3.2-.2c.3,0,.7,0,1-.2,12.1-2,21.3-12.5,21.3-25.2v-1.2h-51.1v1.2h0Z"/>
          <path class="cls-4" d="M116.3,373.2v1.2c0,12.9,9.6,23.6,22,25.3.3,0,.7,0,1,.1.8,0,1.7.1,2.5.1s2.2,0,3.2-.2c.3,0,.7,0,1-.2,12.1-2,21.3-12.5,21.3-25.2v-1.2h-51.1,0Z"/>
        </g>
      </g>
    </g>
  </g>
</svg>