<?xml version="1.0" encoding="UTF-8"?>
<svg id="Layer_1" data-name="Layer 1" xmlns="http://www.w3.org/2000/svg" version="1.1" viewBox="0 0 750 1264">
  <defs>
    <style>
      .cls-1 {
        stroke-miterlimit: 10;
      }

      .cls-1, .cls-2 {
        fill: none;
        stroke: #000;
        stroke-width: 2px;
      }

      .cls-3 {
        fill: #fff;
        stroke-width: 0px;
      }

      .cls-4 {
        display: none;
      }
    </style>
  </defs>
  <g id="Layer_2" data-name="Layer 2" class="cls-4">
    <rect class="cls-3" width="750" height="1264"/>
  </g>
  <line class="cls-2" x1="179.6" y1="767" y2="767"/>
  <line class="cls-2" x1="750" y1="767" x2="572.6" y2="767"/>
  <g>
    <path class="cls-1" d="M657.1,402.7H97.5v-172.9h559.6v172.9ZM109.2,391.3h536.3v-150.2H109.2v150.2Z"/>
    <rect class="cls-1" x="109.2" y="241.1" width="536.3" height="150.2"/>
    <path class="cls-1" d="M110.5,321.2h1v-.9h2.9s-.3-.6,0-.6h1.6v-.8h.9v-1.6h1.2v-.4h3.8v-.6h3.8v-1.1h6.5v3h1.7v-5h4.3v-.6h5.8v.8s3.1,1.4,3.1,1.2,0,10.5,0,10.5h1.6v-5.5h1v-14.8h3.1v-5.6h6.5l2.7.9v2h8.3v-2.5h1.1v2.6h6l3.9,2.2,4.8-9.4v-1.7l2.5-3.9v-1h1.1v1.1l2.9,3.9v2l4.5,10v.8l1.5.6v9.5h3.8v-13.8h3.8v-.6h4.4v-1.2h1.9v-2.7h2.4v-2h2.2v2.2l2.6,1v2.2l.7.4v1.2l.6.2v17.6h2.6v1.4h1.9v-13.9h4v-1h4.9v1h1.7l2.6,1.8v6.9h1.9v-7.9h1.6l3.3-5.4h7.9l3.3,5h1.3v7.6h1.6v-1h10.8v-1.4h6.5v6.3h1.1v-9.1h11.5v32.7h1.5v-21.4h3.2v-2.7h1v-2.3h2.4v-2.2h1.1v-1.4h.6v-1.8h1v-2h1.4v-3.3l1.6-3.9,1.2,4v6.1h1.3v3.5h1.5v.8h1.4v2h1.3v36.8h1.3v4.1h3v-14h2v-45.8l4.4,2.9v-3l3.3,3.1h4.7l1.9-1.9v1.7l4.7-2.4v39.1l1.1-1.1v-1.4h2.6v-.7h2.3v-16.3h2.3v-.5h6.9v.4h2.6v2h.8v-5.5l2.8-12.3.4-.2v-6.2l.4,6.1.6.3,2.4,12.4v5.6h1v3.9h.5v-28.4l7.1-2.5v-7.1l2.8,1.4.8-23.6,1.3,24.7,2.6,1.6v10.9h2.8v16.8h.5v-1h.9l.8-.8,1.2,1h1.4v4.3h1.5v-7l1.1-1h1.2v-2l1.7-1.3h1.5v-7.8l18.5-.9v5h.8v-2.1l1.9-2,4.6-.2v2.4h4.7v-3.1l2.5-1.7v-2.6l1.4-.4v-8.9h.6v8.5l.8-.6v-3l2.5-1.1h12.4v2.8h.7v-2.4h1v-4.9l1.3-.8v-2.6l1.5-.7h8.4v5.3h2.7v11.1h.8v-.9l.6-.6v-10.8l1.7-.5h1.7v-4.5l1.8-.5h8.1v7.1h.7v17.2h1v15.5h1.8v1.2h7.9v16.7h1.2v-22.5h8.5v1h1v-1.9h3v1.8h2.8v3.8h.9v14.6h.6v3.4h1.8v.9h.7v1.4h1.7v-2.4h.8v-1.6h1v1.4h.8v2.7h1.1v.7h1.5v-2h2.6v-2.1h1.6v-2.5h1.9v1.8h1.5v-1.1h.8v-9.2h12.1v13.4h.8v-2.9h1.7v1.1h.7v-.7h2.2v-1.6h6.5l1.8,2.2v-47.2l.9-.9v-4.3l2.2-2.3,1-12.1,1.3-2v-14.2h.8l.4,14.2,1.3,2.2,1.3,11.7,2.2,2.5v3.7l1.5,1.7v7.9h.7v19.5h1v-1.2l1.5-.3v-1.2h13.1l.8,4.6v7.5h2.7v-3.8h3.8v1.8l2.2,1v1.2h4.4l1.4-.7v-2.8h9.7v-19.5l.6-.4v-3.5l7.2-1.4h8.2s0,4.3,0,4.1.8,0,.8,0v11.3h5.6l1.2.7v1.2h2v8.5h3.5v-2h3.1v4.1h2v2.3h.8v-.8h6.6v1.7h5v57.7H109.2v-69.1s1.3-1,1.3-1h0Z"/>
  </g>
  <rect class="cls-1" x="202.1" y="610.9" width="348" height="103.5"/>
  <path class="cls-1" d="M572.6,583.5v134.9c-3.4-2.5-7.6-4-12.2-4h-10.3v-130.9h22.5,0Z"/>
  <path class="cls-1" d="M202.1,583.5v130.9h-10.3c-4.6,0-8.8,1.5-12.2,4.1v-135h22.5Z"/>
  <path class="cls-1" d="M580.7,734.7v16.4h-8.1v-8.1c0-11.2-9.1-20.3-20.3-20.3H199.9c-11.2,0-20.3,9.1-20.3,20.3v8.1h-8.1v-16.4c0-6.6,3.2-12.5,8.1-16.2,3.4-2.5,7.6-4.1,12.2-4.1h368.7c4.6,0,8.8,1.5,12.2,4,4.9,3.7,8.1,9.6,8.1,16.2Z"/>
  <path class="cls-1" d="M572.6,742.9v8.1H179.6v-8.1c0-11.2,9.1-20.3,20.3-20.3h352.4c11.2,0,20.3,9.1,20.3,20.3Z"/>
  <path class="cls-1" d="M565.1,755.5"/>
  <rect class="cls-1" x="170.4" y="751.1" width="411.3" height="12.3"/>
  <rect class="cls-1" x="179.6" y="763.3" width="22.5" height="114.9"/>
  <rect class="cls-1" x="550.1" y="763.3" width="22.5" height="114.9"/>
  <rect class="cls-1" x="202.1" y="763.3" width="348" height="81.1"/>
  <path class="cls-1" d="M353.9,714.4h-146.1s1.8-28.5,13.6-42.4c0,0,48.6-12.6,121.9,0,0,0,11,15.1,10.6,42.4Z"/>
  <path class="cls-1" d="M337,714.4h-112.3s1.3-18.1,10.5-26.9c0,0,37.4-8,93.7,0,0,0,8.5,9.6,8.1,26.9h0Z"/>
  <path class="cls-1" d="M544.3,714.4h-146.1s1.8-28.5,13.6-42.4c0,0,48.6-12.6,121.9,0,0,0,11,15.1,10.6,42.4Z"/>
  <path class="cls-1" d="M527.4,714.4h-112.3s1.4-18.1,10.5-26.9c0,0,37.4-8,93.7,0,0,0,8.5,9.6,8.1,26.9Z"/>
  <rect class="cls-1" x="170.4" y="574.7" width="411.3" height="8.8"/>
</svg>