<?xml version="1.0" encoding="UTF-8"?>
<svg xmlns="http://www.w3.org/2000/svg" width="750" height="1264" version="1.1" viewBox="0 0 750 1264">
  <g id="Layer_2" data-name="Layer 2" display="none">
    <rect x="0" width="750" height="1264" fill="#fff" stroke-width="0"/>
  </g>
  <g id="Layer_1" data-name="Layer 1">
    <line x1="204.78" y1="880" x2="172.45" y2="880" fill="none" stroke="#000" stroke-width="2"/>
    <line x1="750" y1="880" x2="721.89" y2="880" fill="none" stroke="#000" stroke-width="2"/>
    <line x1="25.39" y1="880" x2="-10" y2="880" fill="none" stroke="#000" stroke-width="2"/>
    <g>
      <path d="M734,498.38H12v-223.063h722v223.063ZM26.993,483.739h692.015v-193.782H26.993v193.782Z" fill="none" stroke="#000" stroke-miterlimit="10" stroke-width="2"/>
      <rect x="26.993" y="289.957" width="692.015" height="193.782" fill="none" stroke="#000" stroke-miterlimit="10" stroke-width="2"/>
      <path d="M28.709,393.312h1.334v-1.225h3.766s-.449-.787,0-.787h2.062v-1.05h1.165v-2.014h1.524v-.525h4.841v-.788h4.842v-1.401h8.426v3.896h2.241v-6.434h5.558v-.788h7.441v1.05s4.034,1.75,4.034,1.489c0-.264,0,13.567,0,13.567h2.062v-7.089h1.345v-19.085h3.945v-7.265h8.426l3.495,1.138v2.539h10.669v-3.239h1.434v3.326h7.709l5.02,2.802,6.187-12.168v-2.188l3.226-4.99v-1.313h1.435v1.401l3.766,4.99v2.627l5.827,12.868v1.05l1.972.832v12.298h4.93v-17.858h4.931v-.787h5.737v-1.489h2.51v-3.501h3.049v-2.625h2.868v2.887l3.406,1.313v2.802l.897.524v1.576l.717.262v22.673h3.317v1.839h2.51v-17.946h5.11v-1.313h6.275v1.313h2.152l3.317,2.276v8.841h2.421v-10.154h2.062l4.303-7.003h10.22l4.212,6.478h1.615v9.804h2.062v-1.226h13.985v-1.838h8.337v8.141h1.435v-11.73h14.791v42.193h1.883v-27.663h4.123v-3.5h1.255v-2.976h3.048v-2.802h1.434v-1.751h.717v-2.275h1.345v-2.538h1.793v-4.29l2.062-5.076,1.524,5.165v7.879h1.614v4.552h1.972v1.05h1.794v2.625h1.703v47.447h1.614v5.339h3.854v-18.034h2.6v-59.087l5.648,3.765v-3.851l4.303,3.938h6.006l2.421-2.451v2.188l6.007-3.151v50.509l1.389-1.355v-1.795h3.361v-.875h2.959v-21.096h2.958v-.702h8.876v.526h3.406v2.539h1.076v-7.091l3.586-15.932.538-.263v-7.966l.538,7.879.807.349,3.048,16.02v7.266h1.255v4.989h.628v-36.591l9.144-3.239v-9.192l3.676,1.751.987-30.464,1.614,31.865,3.406,2.099v14.095h3.675v21.622h.628v-1.226h1.166l1.076-1.05,1.522,1.313h1.794v5.602h1.972v-9.016l1.433-1.313h1.525v-2.626l2.239-1.664h1.973v-10.067l23.847-1.225v6.478h1.076v-2.714l2.51-2.539,5.918-.262v3.063h6.007v-4.025l3.227-2.189v-3.326l1.791-.526v-11.467h.718v11.031l.985-.789v-3.852l3.228-1.401h15.957v3.677h.899v-3.063h1.252v-6.303l1.702-1.05v-3.327l1.884-.963h10.848v6.827h3.496v14.268h1.076v-1.224l.808-.788v-13.919l2.149-.7h2.242v-5.778l2.332-.7h10.399v9.104h.896v22.234h1.346v19.959h2.33v1.576h10.132v21.534h1.522v-28.975h10.937v1.226h1.256v-2.452h3.855v2.277h3.585v4.902h1.167v18.82h.715v4.377h2.332v1.137h.896v1.839h2.242v-3.151h1.076v-2.101h1.255v1.838h.986v3.502h1.433v.963h1.884v-2.539h3.405v-2.714h2.062v-3.239h2.42v2.276h1.973v-1.4h.985v-11.906h15.599v17.333h1.074v-3.764h2.154v1.401h.897v-.876h2.867v-2.012h8.428l2.331,2.801v-60.927l1.163-1.138v-5.515l2.779-2.976,1.344-15.582,1.706-2.539v-18.382h.987l.536,18.295,1.703,2.801,1.614,15.057,2.869,3.239v4.727l1.972,2.19v10.242h.896v25.123h1.255v-1.488l1.883-.438v-1.576h16.943l.987,5.954v9.716h3.495v-4.902h4.843v2.276l2.869,1.226v1.488h5.737l1.791-.963v-3.677h12.551v-25.21l.806-.525v-4.552l9.325-1.751h10.577s0,5.603,0,5.34.987,0,.987,0v14.532h7.262l1.524.962v1.488h2.601v10.942h4.57v-2.539h3.945v5.339h2.601v2.978h.986v-1.052h8.518v2.189l6.453.019v74.476H26.993l.003-89.201,1.714-1.226Z" fill="none" stroke="#000" stroke-miterlimit="10" stroke-width="2"/>
    </g>
    <rect x="243.801" y="678.583" width="449.066" height="133.539" fill="none" stroke="#000" stroke-miterlimit="10" stroke-width="2"/>
    <path d="M721.886,643.235v174.112c-4.376-3.285-9.817-5.225-15.701-5.225h-13.317v-168.886h29.019Z" fill="none" stroke="#000" stroke-miterlimit="10" stroke-width="2"/>
    <path d="M243.801,643.235v168.886h-13.305c-5.898,0-11.339,1.953-15.714,5.238v-174.125h29.019Z" fill="none" stroke="#000" stroke-miterlimit="10" stroke-width="2"/>
    <path d="M732.362,838.312v21.13h-10.476v-10.489c0-14.471-11.719-26.19-26.178-26.19H240.973c-14.471,0-26.19,11.719-26.19,26.19v10.489h-10.476v-21.13c0-8.574,4.109-16.171,10.476-20.952,4.376-3.285,9.817-5.238,15.714-5.238h475.688c5.885,0,11.326,1.941,15.701,5.225,6.367,4.781,10.476,12.391,10.476,20.965Z" fill="none" stroke="#000" stroke-miterlimit="10" stroke-width="2"/>
    <path d="M721.886,848.953v10.489H214.783v-10.489c0-14.471,11.719-26.19,26.19-26.19h454.735c14.459,0,26.178,11.719,26.178,26.19Z" fill="none" stroke="#000" stroke-miterlimit="10" stroke-width="2"/>
    <path d="M712.199,865.177" fill="none" stroke="#000" stroke-miterlimit="10" stroke-width="2"/>
    <rect x="203" y="859.44" width="530.67" height="15.84" fill="none" stroke="#000" stroke-miterlimit="10" stroke-width="2"/>
    <rect x="214.78" y="875.28" width="29.02" height="148.22" fill="none" stroke="#000" stroke-miterlimit="10" stroke-width="2"/>
    <rect x="692.87" y="875.28" width="29.02" height="148.22" fill="none" stroke="#000" stroke-miterlimit="10" stroke-width="2"/>
    <rect x="243.8" y="875.28" width="449.07" height="104.65" fill="none" stroke="#000" stroke-miterlimit="10" stroke-width="2"/>
    <path d="M439.766,812.122h-188.532s2.27-36.755,17.604-54.765c0,0,62.743-16.221,157.294,0,0,0,14.192,19.456,13.634,54.765Z" fill="none" stroke="#000" stroke-miterlimit="10" stroke-width="2"/>
    <path d="M417.938,812.122h-144.878s1.738-23.299,13.52-34.713c0,0,48.221-10.273,120.894,0,0,0,10.907,12.328,10.463,34.713Z" fill="none" stroke="#000" stroke-miterlimit="10" stroke-width="2"/>
    <path d="M685.422,812.122h-188.52s2.27-36.755,17.604-54.765c0,0,62.743-16.221,157.294,0,0,0,14.192,19.456,13.622,54.765Z" fill="none" stroke="#000" stroke-miterlimit="10" stroke-width="2"/>
    <path d="M663.608,812.122h-144.89s1.75-23.299,13.533-34.713c0,0,48.221-10.273,120.881,0,0,0,10.907,12.328,10.476,34.713Z" fill="none" stroke="#000" stroke-miterlimit="10" stroke-width="2"/>
    <rect x="203" y="631.884" width="530.681" height="11.351" fill="none" stroke="#000" stroke-miterlimit="10" stroke-width="2"/>
    <rect x="80.72" y="865.85" width="36.4" height="4.04" fill="none" stroke="#000" stroke-miterlimit="10" stroke-width="2"/>
    <rect x="80.72" y="865.85" width="36.4" height="4.04" fill="none" stroke="#000" stroke-miterlimit="10" stroke-width="2"/>
    <rect x="80.72" y="865.85" width="36.4" height="4.04" fill="none" stroke="#000" stroke-miterlimit="10" stroke-width="2"/>
    <path d="M166.18,793.39v58.54H31.66v-58.54h-6.27v128.5h147.06v-128.5h-6.27ZM166.18,916.18H31.66v-58.54h134.52v58.54Z" fill="none" stroke="#000" stroke-miterlimit="10" stroke-width="2"/>
    <path d="M31.66,857.64v58.54h134.52v-58.54H31.66ZM80.72,865.85h36.4v4.04h-36.4v-4.04Z" fill="none" stroke="#000" stroke-miterlimit="10" stroke-width="2"/>
    <rect x="31.66" y="793.39" width="134.52" height="58.54" fill="none" stroke="#000" stroke-miterlimit="10" stroke-width="2"/>
    <rect x="31.66" y="793.39" width="134.52" height="58.54" fill="none" stroke="#000" stroke-miterlimit="10" stroke-width="2"/>
    <rect x="80.716" y="801.598" width="36.406" height="4.046" fill="none" stroke="#000" stroke-miterlimit="10" stroke-width="2"/>
    <rect x="19.92" y="787.68" width="158" height="5.71" fill="none" stroke="#000" stroke-miterlimit="10" stroke-width="2"/>
    <polygon points="41.25 921.89 39.66 930.77 34.58 930.77 33 921.89 41.25 921.89" fill="none" stroke="#000" stroke-miterlimit="10" stroke-width="2"/>
    <polygon points="166.18 921.89 164.59 930.77 159.52 930.77 157.93 921.89 166.18 921.89" fill="none" stroke="#000" stroke-miterlimit="10" stroke-width="2"/>
    <rect x="26.024" y="703.773" width="70.5" height="53.856" fill="none" stroke="#000" stroke-miterlimit="10" stroke-width="2"/>
    <rect x="55.774" y="757.628" width="11" height="25" fill="none" stroke="#000" stroke-miterlimit="10" stroke-width="2"/>
    <rect x="34.72" y="782.626" width="53.11" height="5.05" fill="none" stroke="#000" stroke-miterlimit="10" stroke-width="2"/>
    <path d="M154.69,763.626l-.5,1.47-.63,1.86s-3.37,4.17-3.75,4.55c-.37.37-13.37-1.88-14-1.66-.62.22-2.5-4.09,1-3.45,1.51.28,3.44-.29,5.42-1.08,2.62-1.04,5.34-2.46,7.33-2.81,3.5-.63,5.13,1.12,5.13,1.12Z" fill="none" stroke="#000" stroke-miterlimit="10" stroke-width="2"/>
    <path d="M156.06,764.646v14.76h-34.07v-14.85c.12-.18.2-.3.2-.3,0,0,.71-.94,2.02-1.88,1.74-1.26,4.53-2.5,8.1-1.5,3.66,1.02,6.93,2.99,9.92,4.44-1.98.79-3.91,1.36-5.42,1.08-3.5-.64-1.62,3.67-1,3.45.63-.22,13.63,2.03,14,1.66.38-.38,3.75-4.55,3.75-4.55l.63-1.86c.96-.67,1.5-1.27,1.5-1.27l.37.82Z" fill="none" stroke="#000" stroke-miterlimit="10" stroke-width="2"/>
    <path d="M121.94,764.626c.02-.03.03-.05.05-.07v10.09c-.02-.01-.03-.02-.05-.04v-9.98Z" fill="none" stroke="#000" stroke-miterlimit="10" stroke-width="2"/>
    <path d="M152.69,765.996c.58-.28,1.08-.6,1.5-.9l-.63,1.86s-3.37,4.17-3.75,4.55c-.37.37-13.37-1.88-14-1.66-.62.22-2.5-4.09,1-3.45,1.51.28,3.44-.29,5.42-1.08,2.12,1.03,4.09,1.81,5.96,1.81,1.76,0,3.29-.51,4.5-1.13Z" fill="none" stroke="#000" stroke-miterlimit="10" stroke-width="2"/>
    <path d="M156.06,765.46l.05,9.705c-.02.03-.03.05-.05.08v-9.785h0Z" fill="none" stroke="#000" stroke-miterlimit="10" stroke-width="2"/>
    <path d="M110.04,732.336v55.34h56.82v-55.34h-56.82ZM156.06,779.406l-34.07.085v-13.52c.12-.265.521-2.092.521-2.092,0,0,.389-.563,1.699-1.503,1.74-1.26,4.53-2.5,8.1-1.5,3.66,1.02,6.93,2.99,9.92,4.44-1.98.79-3.91,1.36-5.42,1.08-3.5-.64-1.62,3.67-1,3.45.63-.22,13.63,2.03,14,1.66.38-.38,3.75-4.55,3.75-4.55l.63-1.86c.96-.67,1.5-1.27,1.5-1.27l.37.82v14.76Z" fill="none" stroke="#000" stroke-miterlimit="10" stroke-width="2"/>
    <path d="M147.09,753.211c0,2.071-1.679,3.751-3.75,3.751s-3.75-1.68-3.75-3.751,1.68-3.75,3.75-3.75,3.75,1.68,3.75,3.75Z" fill="none" stroke="#000" stroke-miterlimit="10" stroke-width="2"/>
    <path d="M156.06,745.336v19.31l-.37-.82s-.54.6-1.5,1.27l-.63,1.86s-3.37,4.17-3.75,4.55c-.37.37-13.37-1.88-14-1.66-.62.22-2.5-4.09,1-3.45,1.51.28,3.44-.29,5.42-1.08-2.99-1.45-6.26-3.42-9.92-4.44-3.57-1-6.36.24-8.1,1.5-1.31.94-2.02,1.88-2.02,1.88,0,0-.08.12-.2.3v-19.22h34.07Z" fill="none" stroke="#000" stroke-miterlimit="10" stroke-width="2"/>
  </g>
</svg>