<?xml version="1.0" encoding="UTF-8"?>
<svg id="Layer_2" data-name="Layer 2" xmlns="http://www.w3.org/2000/svg" width="750" height="1264" version="1.1" viewBox="0 0 750 1264">
  <defs>
    <style>
      .cls-1 {
        fill: #000;
      }

      .cls-1, .cls-2 {
        stroke: #000;
      }

      .cls-1, .cls-2, .cls-3 {
        stroke-width: 2px;
      }

      .cls-2, .cls-3 {
        fill: none;
      }

      .cls-3 {
        stroke: #231f20;
      }
    </style>
  </defs>
  <line class="cls-3" x1="261" y1="678.6" x2="490.5" y2="678.6"/>
  <line class="cls-2" x1="602.1" y1="386" x2="414.6" y2="386"/>
  <line class="cls-2" x1="329" y1="386" x2="147" y2="386"/>
  <circle class="cls-1" cx="140.6" cy="386" r="8.9"/>
  <circle class="cls-1" cx="606.5" cy="386" r="8.9"/>
  <path class="cls-2" d="M261,386v344.3c0,3.7-3.1,6.8-6.8,6.8h-15.6v7.3c0,3.7-3,6.8-6.8,6.8h-18.6v7.5c0,3.7-3.1,6.8-6.8,6.8h-31.1c-3.7,0-6.8-3.1-6.8-6.8v-365.9c0-3.7,3.1-6.8,6.8-6.8h85.7Z"/>
  <line class="cls-2" x1="490.5" y1="396.4" x2="409.1" y2="396.4"/>
  <line class="cls-2" x1="334.4" y1="396.4" x2="261.1" y2="396.4"/>
  <line class="cls-2" x1="261" y1="536.9" x2="490.5" y2="536.9"/>
  <line class="cls-2" x1="372.2" y1="678.6" x2="372.2" y2="415.9"/>
  <path class="cls-2" d="M490.6,386h85.6c3.7,0,6.8,3.1,6.8,6.8v365.9c0,3.7-3.1,6.8-6.8,6.8h-31.1c-3.7,0-6.8-3.1-6.8-6.8v-7.5h-18.6c-3.8,0-6.8-3.1-6.8-6.8v-7.3h-15.6c-3.7,0-6.8-3.1-6.8-6.8v-344.3h.1,0Z"/>
  <circle class="cls-2" cx="251.5" cy="276.9" r="45.5"/>
  <circle class="cls-2" cx="498.5" cy="276.9" r="45.5"/>
  <path class="cls-2" d="M417.3,370.3c0,5.5-1,10.8-2.8,15.7-1.4,3.7-3.2,7.2-5.4,10.4-8.2,11.7-21.7,19.3-37,19.5h-.4c-15.5,0-29.1-7.7-37.3-19.5-2.2-3.2-4.1-6.7-5.4-10.4-1.8-4.9-2.8-10.2-2.8-15.7,0-25.2,20.4-45.5,45.5-45.5s45.5,20.4,45.5,45.5h0Z"/>
  <line class="cls-2" x1="251.5" y1="231.4" x2="252.2" y2="1.9"/>
  <line class="cls-2" x1="498.5" y1="231.4" x2="499.3" y2="1.9"/>
  <line class="cls-2" x1="371.8" y1="324.8" x2="372.5" y2="2.3"/>
  <line class="cls-2" x1="232.3" y1="957.1" x2="161.4" y2="957.1"/>
  <line class="cls-2" x1="417.2" y1="957.1" x2="332.8" y2="957.1"/>
  <line class="cls-2" x1="586" y1="957.1" x2="517.7" y2="957.1"/>
  <line class="cls-2" x1="750" y1="957.1" x2="603" y2="957.1"/>
  <line class="cls-2" x1="144.4" y1="957.1" y2="957.1"/>
  <rect class="cls-2" x="105.7" y="857.6" width="540" height="23.2" rx="11.6" ry="11.6"/>
  <rect class="cls-2" x="144.4" y="880.7" width="17" height="169"/>
  <rect class="cls-2" x="586" y="880.7" width="17" height="169"/>
  <g>
    <rect class="cls-3" x="238" y="964.9" width="16.6" height="93.3"/>
    <rect class="cls-3" x="308.7" y="964.9" width="16.6" height="93.3"/>
    <rect class="cls-3" x="232.3" y="947.6" width="100.5" height="16.6"/>
  </g>
  <g>
    <rect class="cls-3" x="422.9" y="964.9" width="16.6" height="93.3"/>
    <rect class="cls-3" x="493.6" y="964.9" width="16.6" height="93.3"/>
    <rect class="cls-3" x="417.2" y="947.6" width="100.5" height="16.6"/>
  </g>
</svg>