<?xml version="1.0" encoding="UTF-8"?>
<svg xmlns="http://www.w3.org/2000/svg" width="753.276" height="1265" viewBox="0 0 753.276 1265">
  <g id="a" data-name="Layer 1">
    <line x1="462.072" y1="881" x2="461.432" y2="881" fill="none" stroke="#231f20" stroke-width="2"/>
    <line x1="396.432" y1="881" x2="260.732" y2="881" fill="none" stroke="#231f20" stroke-width="2"/>
    <line x1="751.702" y1="881" x2="683.702" y2="881" fill="none" stroke="#231f20" stroke-width="2"/>
    <line x1="144.912" y1="881" x2="1.702" y2="881" fill="none" stroke="#231f20" stroke-width="2"/>
  </g>
  <g id="b" data-name="Layer 3">
    <line x1="752.702" y1="195" x2="476.531" y2="1.327" fill="none" stroke="#231f20" stroke-miterlimit="10" stroke-width="2"/>
    <line x1=".574" y1="195.135" x2="276.745" y2="1.461" fill="none" stroke="#231f20" stroke-miterlimit="10" stroke-width="2"/>
    <line x1="750.687" y1="115" x2="585.45" y2="1.798" fill="none" stroke="#231f20" stroke-miterlimit="10" stroke-width="2"/>
    <line x1=".917" y1="115.236" x2="166.154" y2="2.034" fill="none" stroke="#231f20" stroke-miterlimit="10" stroke-width="2"/>
    <rect x="288.972" y="309.79" width="8.42" height="254.3" fill="none" stroke="#231f20" stroke-miterlimit="10" stroke-width="2"/>
    <rect x="320.882" y="309.79" width="10.13" height="254.3" fill="none" stroke="#231f20" stroke-miterlimit="10" stroke-width="2"/>
    <rect x="354.502" y="309.79" width="61.41" height="254.3" fill="none" stroke="#231f20" stroke-miterlimit="10" stroke-width="2"/>
    <rect x="439.402" y="309.79" width="8.42" height="254.3" fill="none" stroke="#231f20" stroke-miterlimit="10" stroke-width="2"/>
    <rect x="471.312" y="309.79" width="10.13" height="254.3" fill="none" stroke="#231f20" stroke-miterlimit="10" stroke-width="2"/>
    <line x1="331.012" y1="440.73" x2="320.882" y2="440.73" fill="none" stroke="#231f20" stroke-miterlimit="10" stroke-width="2"/>
    <line x1="447.822" y1="440.73" x2="439.402" y2="440.73" fill="none" stroke="#231f20" stroke-miterlimit="10" stroke-width="2"/>
    <line x1="481.442" y1="440.73" x2="471.312" y2="440.73" fill="none" stroke="#231f20" stroke-miterlimit="10" stroke-width="2"/>
    <polyline points="415.912 440.73 383.712 440.73 354.502 440.73" fill="none" stroke="#231f20" stroke-miterlimit="10" stroke-width="2"/>
    <polyline points="297.392 440.73 294.721 440.73 288.702 440.73" fill="none" stroke="#231f20" stroke-miterlimit="10" stroke-width="2"/>
    <line x1="383.709" y1="310.455" x2="383.709" y2="562.768" fill="none" stroke="#231f20" stroke-miterlimit="10" stroke-width="2"/>
    <path d="M336.702,1002.64l-17.32,11.14-.1-.04,16.7-11.01c.24-.03.48-.06.72-.09Z" fill="none" stroke="#231f20" stroke-miterlimit="10" stroke-width="2"/>
    <path d="M713.702,1104.86c0,59.17-129.81,107.14-289.94,107.14s-289.95-47.97-289.95-107.14c0-9.1,3.07-17.94,8.85-26.38l94.29,38.63,82.05,33.61v-136.7l.38-.24.3.1v136.65l38.22-26.45,80.8-55.91v-70.31c2.12.04,4.24.09,6.35.15l43.57,37.99,55.41-28.66c100.1,16.88,169.67,54.19,169.67,97.52Z" fill="none" stroke="#231f20" stroke-miterlimit="10" stroke-width="2"/>
    <path d="M319.282,1013.74l-.21.14-18.1-6.1c.13-.03.26-.05.39-.07l17.92,6.03Z" fill="none" stroke="#231f20" stroke-miterlimit="10" stroke-width="2"/>
    <path d="M613.642,1106.08c0,38.67-84.85,70.03-189.52,70.03-94.51,0-172.86-25.57-187.17-59l82.05,33.61v-102.91c.23-.06.45-.11.68-.17v102.89l38.22-26.45,80.8-55.91v-31.92c97.86,2.76,174.94,32.96,174.94,69.83Z" fill="none" stroke="#231f20" stroke-miterlimit="10" stroke-width="2"/>
    <path d="M522.502,1101.68c0,19.07-41.85,34.53-93.47,34.53-28.48,0-53.99-4.71-71.13-12.13l80.8-55.91v-.85c47.08,1.79,83.8,16.49,83.8,34.36Z" fill="none" stroke="#231f20" stroke-miterlimit="10" stroke-width="2"/>
    <line x1="557.011" y1="916.713" x2="629.548" y2="881.964" fill="#fff" stroke="#231f20" stroke-miterlimit="10" stroke-width="2"/>
    <line x1="628.324" y1="917.121" x2="629.548" y2="881.964" fill="#fff" stroke="#231f20" stroke-miterlimit="10" stroke-width="2"/>
    <line x1="555.489" y1="950.638" x2="628.324" y2="917.121" fill="#fff" stroke="#231f20" stroke-miterlimit="10" stroke-width="2"/>
    <line x1="557.011" y1="916.713" x2="555.489" y2="950.638" fill="#fff" stroke="#231f20" stroke-miterlimit="10" stroke-width="2"/>
    <g>
      <polygon points="683.702 820.19 540.532 881 488.622 903.05 462.072 881 430.722 854.96 430.662 854.91 397.912 827.72 397.282 827.19 592.362 751.33 631.712 781 683.702 820.19" fill="none" stroke="#231f20" stroke-miterlimit="10" stroke-width="2"/>
      <polygon points="488.622 903.05 488.622 1036 445.052 998.01 438.702 992.47 438.702 937 402.702 960.16 402.092 960.55 401.162 959.74 437.702 935.64 396.432 922.9 396.432 828.3 461.432 881 488.622 903.05" fill="none" stroke="#231f20" stroke-miterlimit="10" stroke-width="2"/>
      <polygon points="683.702 820.19 683.702 935.11 544.032 1007.34 488.622 1036 488.622 903.05 540.532 881 683.702 820.19" fill="none" stroke="#231f20" stroke-miterlimit="10" stroke-width="2"/>
    </g>
    <polyline points="396.437 828.296 592.365 751.331 631.972 780.881 443.935 865.226 396.437 828.296" fill="#000" stroke="#231f20" stroke-miterlimit="10" stroke-width="2"/>
    <polygon points="396.437 828.296 357.702 777 554.702 700 592.365 751.331 396.437 828.296" fill="none" stroke="#231f20" stroke-miterlimit="10" stroke-width="2"/>
    <line x1="111.026" y1="881" x2="111.026" y2="119" fill="none" stroke="#231f20" stroke-miterlimit="10" stroke-width="2"/>
    <g>
      <rect x="149.702" y="770" width="177" height="38" fill="none" stroke="#231f20" stroke-miterlimit="10" stroke-width="2"/>
      <polygon points="179.702 807.8 179.702 860.18 164.592 869.22 164.592 807.8 179.702 807.8" fill="none" stroke="#231f20" stroke-miterlimit="10" stroke-width="2"/>
      <rect x="296.544" y="808.199" width="15.106" height="73.201" fill="none" stroke="#231f20" stroke-miterlimit="10" stroke-width="2"/>
    </g>
    <polygon points="437.702 935.64 401.162 959.74 335.982 1002.73 319.282 1013.74 301.362 1007.71 65.692 928.42 133.272 887.96 133.282 887.96 144.912 881 164.592 869.22 179.702 860.18 184.322 857.41 260.732 881 396.432 922.9 437.702 935.64" fill="none" stroke="#231f20" stroke-miterlimit="10" stroke-width="2"/>
    <polygon points="319.282 1013.74 319.072 1013.88 65.692 928.42 319.282 1013.74" fill="none" stroke="#231f20" stroke-miterlimit="10" stroke-width="2"/>
    <polygon points="438.702 937 438.702 1068.17 357.902 1124.08 319.682 1150.53 319.682 1013.88 319.382 1013.78 336.702 1002.64 402.092 960.55 402.702 960.16 438.702 937" fill="none" stroke="#231f20" stroke-miterlimit="10" stroke-width="2"/>
    <polygon points="319.382 1013.78 319.682 1013.88 319.682 1150.53 319.252 1150.83 319.002 1151 319.002 1014.02 319.382 1013.78" fill="none" stroke="#231f20" stroke-miterlimit="10" stroke-width="2"/>
    <polygon points="319.382 1013.78 319.002 1014.02 319.002 1150.72 236.952 1117.11 142.662 1078.48 65.692 1046.95 65.692 928.42 300.972 1007.78 319.072 1013.88 319.282 1013.74 319.382 1013.78" fill="none" stroke="#231f20" stroke-miterlimit="10" stroke-width="2"/>
    <polygon points="319.282 1013.74 319.072 1013.88 300.972 1007.78 65.692 928.42 301.362 1007.71 319.282 1013.74" fill="none" stroke="#231f20" stroke-miterlimit="10" stroke-width="2"/>
    <polygon points="319.682 1013.88 319.682 1151 319.252 1150.83 319.002 1150.72 319.002 1014.02 319.382 1013.78 319.682 1013.88" fill="none" stroke="#231f20" stroke-miterlimit="10" stroke-width="2"/>
    <line x1="133.272" y1="887.96" x2="133.042" y2="887.88" fill="none" stroke="#231f20" stroke-miterlimit="10" stroke-width="2"/>
    <line x1="377.862" y1="974.87" x2="133.282" y2="887.96" fill="none" stroke="#231f20" stroke-miterlimit="10" stroke-width="2"/>
    <line x1="186.702" y1="1012" x2="136.201" y2="992.135" fill="none" stroke="#231f20" stroke-miterlimit="10" stroke-width="2"/>
    <line x1="137.794" y1="1028.394" x2="136.201" y2="992.135" fill="none" stroke="#231f20" stroke-miterlimit="10" stroke-width="2"/>
    <line x1="188.702" y1="1047" x2="137.794" y2="1028.394" fill="none" stroke="#231f20" stroke-miterlimit="10" stroke-width="2"/>
    <line x1="188.757" y1="1047.492" x2="187.164" y2="1011.233" fill="none" stroke="#231f20" stroke-miterlimit="10" stroke-width="2"/>
    <line x1="378.605" y1="973.777" x2="387.144" y2="1006.8" fill="none" stroke="#231f20" stroke-miterlimit="10" stroke-width="2"/>
    <polygon points="396.342 1042.32 382.042 1043 379.742 1015.98 386.702 1005.89 387.012 1006.28 394.042 1015.3 396.342 1042.32" fill="none" stroke="#231f20" stroke-miterlimit="10" stroke-width="2"/>
    <line x1="50.426" y1="880" x2="50.426" y2="160.934" fill="none" stroke="#231f20" stroke-miterlimit="10" stroke-width="2"/>
    <line x1="643.446" y1="790" x2="643.446" y2="117.816" fill="none" stroke="#231f20" stroke-miterlimit="10" stroke-width="2"/>
    <line x1="704.045" y1="882" x2="704.045" y2="159.75" fill="none" stroke="#231f20" stroke-miterlimit="10" stroke-width="2"/>
    <line x1="378.702" y1="102" x2="378.702" fill="none" stroke="#231f20" stroke-miterlimit="10" stroke-width="2"/>
    <circle cx="379.202" cy="168.5" r="66.5" fill="none" stroke="#231f20" stroke-miterlimit="10" stroke-width="2"/>
    <rect x="211.697" y="727.784" width="66.789" height="17.222" transform="translate(980.572 984.215) rotate(127.03)" fill="none" stroke="#231f20" stroke-miterlimit="10" stroke-width="2"/>
    <rect x="259.915" y="738.657" width="66.789" height="31.222" transform="translate(586.62 1508.536) rotate(180)" fill="none" stroke="#231f20" stroke-miterlimit="10" stroke-width="2"/>
    <rect x="272.939" y="713.466" width="26.229" height="25.298" transform="translate(1012.168 440.061) rotate(90)" fill="none" stroke="#231f20" stroke-miterlimit="10" stroke-width="2"/>
    <path d="M265.175,44.997s12.62-3.155,11.989,11.358" fill="none" stroke="#231f20" stroke-miterlimit="10" stroke-width="2"/>
    <path d="M277.232,56.057s10.63-7.498,15.281,6.264" fill="none" stroke="#231f20" stroke-miterlimit="10" stroke-width="2"/>
    <path d="M246.119,61.932s18.216-4.422,17.305,15.918" fill="none" stroke="#231f20" stroke-miterlimit="10" stroke-width="2"/>
    <line x1="313.845" y1="3.176" x2="264.108" y2="133.124" fill="none" stroke="#231f20" stroke-miterlimit="10" stroke-width="2"/>
    <line x1="313.042" y1="2.239" x2="234.4" y2="117.025" fill="none" stroke="#231f20" stroke-miterlimit="10" stroke-width="2"/>
    <line x1="311.43" y1="3.465" x2="206.347" y2="94.669" fill="none" stroke="#231f20" stroke-miterlimit="10" stroke-width="2"/>
    <line x1="311.162" y1="2.26" x2="187.724" y2="66.475" fill="none" stroke="#231f20" stroke-miterlimit="10" stroke-width="2"/>
    <line x1="313.773" y1="2.501" x2="302.068" y2="141.149" fill="none" stroke="#231f20" stroke-miterlimit="10" stroke-width="2"/>
    <path d="M292.124,60.101s8.558-9.797,16.328,2.476" fill="none" stroke="#231f20" stroke-miterlimit="10" stroke-width="2"/>
    <path d="M308.731,64.716s1.004-14.735,21.961-4.693" fill="none" stroke="#231f20" stroke-miterlimit="10" stroke-width="2"/>
    <path d="M252.682,32.667s12.454-3.758,12.522,10.768" fill="none" stroke="#231f20" stroke-miterlimit="10" stroke-width="2"/>
    <path d="M263.463,75.839s13.515-10.872,20.479,10.378" fill="none" stroke="#231f20" stroke-miterlimit="10" stroke-width="2"/>
    <path d="M283.494,86.032s11.773-14.396,22.627,3.773" fill="none" stroke="#231f20" stroke-miterlimit="10" stroke-width="2"/>
    <path d="M306.495,90.011s8.651-22.993,33.134.076" fill="none" stroke="#231f20" stroke-miterlimit="10" stroke-width="2"/>
    <path d="M230.286,44.388s15.955-5.111,16.044,14.651" fill="none" stroke="#231f20" stroke-miterlimit="10" stroke-width="2"/>
    <path d="M224.163,79.345s22.299-6.042,21.228,21.585" fill="none" stroke="#231f20" stroke-miterlimit="10" stroke-width="2"/>
    <path d="M245.431,100.93s16.04-16.076,25.201,16.288" fill="none" stroke="#231f20" stroke-miterlimit="10" stroke-width="2"/>
    <path d="M270.944,117.097s16.423-24.215,32.095,6.714" fill="none" stroke="#231f20" stroke-miterlimit="10" stroke-width="2"/>
    <path d="M303.559,125.707s9.619-42.219,41.674-14.895" fill="none" stroke="#231f20" stroke-miterlimit="10" stroke-width="2"/>
    <path d="M206.432,57.226s18.594-7.419,18.777,21.48" fill="none" stroke="#231f20" stroke-miterlimit="10" stroke-width="2"/>
    <path d="M288.3,37.988s9.932-1.725,9.448,6.138" fill="none" stroke="#231f20" stroke-miterlimit="10" stroke-width="2"/>
    <path d="M298.243,43.668s7.419-6.066,11.676,4.46" fill="none" stroke="#231f20" stroke-miterlimit="10" stroke-width="2"/>
    <path d="M309.549,49.662s-.658-10.506,17.148-3.645" fill="none" stroke="#231f20" stroke-miterlimit="10" stroke-width="2"/>
    <path d="M271.671,22.11s6.921-4.059,8.91,7.88" fill="none" stroke="#231f20" stroke-miterlimit="10" stroke-width="2"/>
    <path d="M295.376,26.564s7.773-1.458,7.395,5.193" fill="none" stroke="#231f20" stroke-miterlimit="10" stroke-width="2"/>
    <path d="M302.785,31.757s5.549-4.151,8.074,2.246" fill="none" stroke="#231f20" stroke-miterlimit="10" stroke-width="2"/>
    <path d="M310.87,33.997s6.23-8.445,13.421,1.181" fill="none" stroke="#231f20" stroke-miterlimit="10" stroke-width="2"/>
    <path d="M284.555,16.109s3.672-2.67,5.178,5.952" fill="none" stroke="#231f20" stroke-miterlimit="10" stroke-width="2"/>
    <g>
      <line x1="293.606" y1="91.27" x2="293.765" y2="84.23" fill="#000" stroke="#231f20" stroke-miterlimit="10" stroke-width="2"/>
      <g>
        <ellipse cx="294.159" cy="98.316" rx="6.771" ry="6.25" fill="#000" stroke="#231f20" stroke-miterlimit="10" stroke-width="2"/>
        <ellipse cx="287.329" cy="92.54" rx="3.386" ry="3.125" fill="#000" stroke="#231f20" stroke-miterlimit="10" stroke-width="2"/>
        <line x1="298.471" y1="93.72" x2="302.733" y2="85.538" fill="#000" stroke="#231f20" stroke-miterlimit="10" stroke-width="2"/>
        <line x1="300.088" y1="95.77" x2="310.656" y2="94.577" fill="#000" stroke="#231f20" stroke-miterlimit="10" stroke-width="2"/>
        <line x1="300.966" y1="99.791" x2="310.869" y2="101.095" fill="#000" stroke="#231f20" stroke-miterlimit="10" stroke-width="2"/>
        <line x1="288.016" y1="100.411" x2="279.039" y2="99.382" fill="#000" stroke="#231f20" stroke-miterlimit="10" stroke-width="2"/>
        <line x1="290.226" y1="102.46" x2="280.85" y2="107.914" fill="#000" stroke="#231f20" stroke-miterlimit="10" stroke-width="2"/>
        <line x1="291.289" y1="104.233" x2="288.695" y2="114.158" fill="#000" stroke="#231f20" stroke-miterlimit="10" stroke-width="2"/>
        <line x1="294.311" y1="103.923" x2="295.504" y2="114.662" fill="#000" stroke="#231f20" stroke-miterlimit="10" stroke-width="2"/>
      </g>
    </g>
    <path d="M279.702,30.212s10.614-2.312,10.083,8.323" fill="none" stroke="#231f20" stroke-miterlimit="10" stroke-width="2"/>
    <path d="M290.702,22.116s5.656-1.261,5.374,4.541" fill="none" stroke="#231f20" stroke-miterlimit="10" stroke-width="2"/>
    <line x1="314.702" y1="3" x2="345.702" y2="111" fill="none" stroke="#231f20" stroke-miterlimit="10" stroke-width="2"/>
    <line x1="297.392" y1="310.04" x2="288.972" y2="310.04" fill="none" stroke="#231f20" stroke-miterlimit="10" stroke-width="2"/>
    <line x1="415.912" y1="310.04" x2="354.502" y2="310.04" fill="none" stroke="#231f20" stroke-miterlimit="10" stroke-width="2"/>
    <line x1="481.442" y1="310.04" x2="471.312" y2="310.04" fill="none" stroke="#231f20" stroke-miterlimit="10" stroke-width="2"/>
    <polyline points="504.932 310.04 515.562 310.04 530.542 310.04" fill="none" stroke="#231f20" stroke-miterlimit="10" stroke-width="2"/>
    <line x1="447.822" y1="310.04" x2="439.402" y2="310.04" fill="none" stroke="#231f20" stroke-miterlimit="10" stroke-width="2"/>
    <line x1="331.012" y1="310.04" x2="320.882" y2="310.04" fill="none" stroke="#231f20" stroke-miterlimit="10" stroke-width="2"/>
    <polyline points="265.482 310.04 258.182 310.04 242.052 310.04" fill="none" stroke="#231f20" stroke-miterlimit="10" stroke-width="2"/>
    <ellipse cx="523.667" cy="310.701" rx="8.133" ry="8.02" fill="#000" stroke-width="0"/>
    <ellipse cx="250.045" cy="310.151" rx="8.133" ry="8.02" fill="#000" stroke-width="0"/>
    <rect x="265.482" y="300.68" width="23.49" height="296.87" fill="none" stroke="#231f20" stroke-miterlimit="10" stroke-width="2"/>
    <rect x="297.392" y="300.49" width="23.49" height="296.87" fill="none" stroke="#231f20" stroke-miterlimit="10" stroke-width="2"/>
    <rect x="331.012" y="299.73" width="23.49" height="296.87" fill="none" stroke="#231f20" stroke-miterlimit="10" stroke-width="2"/>
    <rect x="415.912" y="300.21" width="23.49" height="296.86" fill="none" stroke="#231f20" stroke-miterlimit="10" stroke-width="2"/>
    <rect x="447.822" y="300.02" width="23.49" height="296.87" fill="none" stroke="#231f20" stroke-miterlimit="10" stroke-width="2"/>
    <rect x="481.442" y="299.26" width="23.49" height="296.86" fill="none" stroke="#231f20" stroke-miterlimit="10" stroke-width="2"/>
    <g>
      <path d="M706.64,983.488c23.636-5.761,20.386-8.568,15.068-24.227-5.318-15.659-23.119-13.888-23.119-13.888,0,0-20.861-2.366-27.844,22.949,0,0-5.023,11.026,8.698,13.109s11.271,2.205,11.271,2.205" fill="#fff" stroke="#231f20" stroke-miterlimit="10" stroke-width="2"/>
      <path d="M690.714,984.017c11.498,3.847,13.6.923,13.6.923,0,0,23.231,35.262,24.061,42.107.83,6.845-8.919,3.526-8.919,3.526l-17.009-.83-6.43-.207-18.875,1.867c-8.712,2.489-10.164-1.037-7.675-8.712s21.247-38.674,21.247-38.674" fill="#fff" stroke="#231f20" stroke-miterlimit="10" stroke-width="2"/>
      <path d="M688.947,987.186s-26.589,12.169-28.205,20.192c-1.617,8.023,19.762-7.622,19.762-7.622l8.444-12.57Z" fill="#fff" stroke="#231f20" stroke-miterlimit="10" stroke-width="2"/>
      <path d="M706.197,987.436s26.589,12.169,28.205,20.192-19.762-7.622-19.762-7.622l-8.444-12.57Z" fill="#fff" stroke="#231f20" stroke-miterlimit="10" stroke-width="2"/>
      <path d="M679.773,968.163s1.157-.01,2.467-.035c1.47-.028,3.132-.076,3.565-.151,4.527-.788,10.301-3.36,12.461-11.097,0,0,4.075,11.283,17.239,10.97,0,0-3.134,17.239-15.985,17.552,0,0-13.822,2.514-18.589-17.248" fill="#fff" stroke="#231f20" stroke-miterlimit="10" stroke-width="2"/>
      <ellipse cx="685.074" cy="1032.008" rx="8.721" ry="7.718" fill="#fff" stroke="#231f20" stroke-miterlimit="10" stroke-width="2"/>
      <ellipse cx="712.447" cy="1032.594" rx="8.721" ry="8.072" fill="#fff" stroke="#231f20" stroke-miterlimit="10" stroke-width="2"/>
      <ellipse cx="690.734" cy="971.758" rx="2.229" ry="2.415" fill="#231f20" stroke-width="0"/>
      <ellipse cx="706.899" cy="972.229" rx="2.229" ry="2.415" fill="#231f20" stroke-width="0"/>
    </g>
    <g>
      <path d="M153.651,696.998s-6.82-1.634-7.444,2.106.165,41.94.165,41.94" fill="none" stroke="#231f20" stroke-miterlimit="10" stroke-width="2"/>
      <path d="M206.573,696.353s6.807-1.688,7.46,2.047c.653,3.735.165,41.94.165,41.94" fill="none" stroke="#231f20" stroke-miterlimit="10" stroke-width="2"/>
      <polyline points="160.407 744.672 160.491 765.977 173.129 765.927 173.047 745.066 160.409 745.116 173.047 745.066 160.409 745.116 173.047 745.066" fill="none" stroke="#231f20" stroke-miterlimit="10" stroke-width="2"/>
      <polyline points="188.565 744.517 188.649 765.746 201.287 765.696 201.205 744.909 188.567 744.959 201.205 744.909 188.567 744.959 201.205 744.909" fill="none" stroke="#231f20" stroke-miterlimit="10" stroke-width="2"/>
      <rect x="160.74" y="662.141" width="38.456" height="26.153" transform="translate(-2.652 .712) rotate(-.225)" fill="none" stroke="#231f20" stroke-miterlimit="10" stroke-width="2"/>
      <rect x="154.24" y="688.07" width="51.719" height="56.872" transform="translate(-2.814 .713) rotate(-.225)" fill="none" stroke="#231f20" stroke-miterlimit="10" stroke-width="2"/>
      <rect x="158.155" y="765.95" width="17.846" height="3.639" transform="translate(-3.016 .663) rotate(-.225)" fill="none" stroke="#231f20" stroke-miterlimit="10" stroke-width="2"/>
      <rect x="186.342" y="765.845" width="17.846" height="3.636" transform="translate(-3.015 .773) rotate(-.225)" fill="none" stroke="#231f20" stroke-miterlimit="10" stroke-width="2"/>
      <line x1="166.544" y1="680.319" x2="193.183" y2="680.215" fill="none" stroke="#231f20" stroke-miterlimit="10" stroke-width="2"/>
      <ellipse cx="168.003" cy="670.891" rx="2.863" ry="2.941" transform="translate(-2.635 .665) rotate(-.225)" fill="#231f20" stroke-width="0"/>
      <ellipse cx="191.113" cy="670.891" rx="2.863" ry="2.941" transform="translate(-2.635 .756) rotate(-.225)" fill="#231f20" stroke-width="0"/>
      <ellipse cx="179.628" cy="707.623" rx="9.961" ry="5.618" transform="translate(-2.78 .711) rotate(-.225)" fill="none" stroke="#231f20" stroke-miterlimit="10" stroke-width="2"/>
    </g>
  </g>
</svg>